<svg width="350" height="350" viewBox="0 0 350 350" fill="none" xmlns="http://www.w3.org/2000/svg">
<g clip-path="url(#clip0_112_512)">
<rect width="350" height="350" rx="175" fill="#2EC8C8"/>
<rect x="-12" y="87" width="267" height="345" rx="51" fill="#C3F6F6"/>
<rect x="25" y="127" width="192" height="286" rx="34" fill="#F2F9FF"/>
<rect x="91" y="104" width="61" height="11" rx="5.5" fill="#A3E8E8"/>
<path d="M121.488 163C98.4968 163 79.8591 181.56 79.8591 204.455C79.8591 218.731 87.106 231.317 98.1284 238.772C81.8121 246.062 69.6693 260.758 66.274 278.505C65.5478 282.302 66.2717 285.984 68.3689 288.885C70.4683 291.79 73.7479 293.641 77.6117 294.134C85.1767 295.099 98.4008 296 121.5 296C144.599 296 157.823 295.099 165.388 294.134C169.252 293.641 172.532 291.79 174.631 288.885C176.728 285.984 177.452 282.302 176.726 278.505C173.33 260.753 161.181 246.053 144.857 238.765C155.873 231.309 163.116 218.727 163.116 204.455C163.116 181.56 144.478 163 121.488 163Z" fill="#A3EFF4"/>
</g>
<path fill-rule="evenodd" clip-rule="evenodd" d="M330.072 36.9015C319.31 30.349 306.868 35.6822 300.582 45.0451C286.684 65.7473 276.122 81.4446 269.036 91.9672C265.521 97.1856 262.861 101.13 261.072 103.781C260.194 102.833 259.16 101.712 257.993 100.44C254.016 96.1044 248.5 90.0126 242.347 82.9952C233.765 73.2101 218.633 70.1199 208.216 79.586C205.007 82.5018 201.661 85.8943 198.552 89.6995C191.489 98.3467 193.244 110.137 199.713 118.064C215.801 137.775 230.191 153.123 241.111 164.008C254.243 177.098 274.826 175.709 286.143 161.062C298.81 144.669 318.326 117.867 345.706 76.2597C350.488 68.9915 352.162 58.7015 346.065 50.8957C341.196 44.6622 335.363 40.1225 330.072 36.9015Z" fill="#FFD260"/>
<defs>
<clipPath id="clip0_112_512">
<rect width="350" height="350" rx="175" fill="white"/>
</clipPath>
</defs>
</svg>
