<svg width="350" height="350" viewBox="0 0 350 350" fill="none" xmlns="http://www.w3.org/2000/svg">
<g clip-path="url(#clip0_51_417)">
<rect width="350" height="350" rx="175" fill="#2EC8C8"/>
<path fill-rule="evenodd" clip-rule="evenodd" d="M8.9897 -21.7178C28.0852 -23.3003 58.8678 -25 103.125 -25C147.388 -25 178.165 -23.3003 197.26 -21.7178C215.84 -20.1763 230.176 -5.83417 231.718 12.7397C233.3 31.8352 235 62.6178 235 106.875C235 118.75 234.883 129.341 234.666 139.111C234.455 149.04 231.477 159.045 225.054 167.321C219.111 174.975 209.651 186.223 196.059 199.809C182.473 213.401 171.225 222.855 163.571 228.804C155.295 235.227 145.29 238.205 135.361 238.416C125.591 238.627 115 238.75 103.125 238.75C58.8619 238.75 28.0852 237.05 8.9897 235.468C-9.59003 233.926 -23.9263 219.584 -25.4678 201.01C-27.0503 181.915 -28.75 151.132 -28.75 106.875C-28.75 62.6119 -27.0503 31.8352 -25.4678 12.7397C-23.9263 -5.84003 -9.58417 -20.1763 8.9897 -21.7178Z" fill="#C3F6F6"/>
<path d="M233.041 150.986C231.516 156.915 228.802 162.472 225.064 167.321C219.121 174.975 209.661 186.223 196.069 199.809C182.483 213.401 171.236 222.855 163.581 228.804C158.733 232.542 153.175 235.256 147.246 236.781C147.891 217.926 148.905 198.637 149.913 187.946C151.654 169.53 165.797 155.388 184.212 153.653C194.903 152.639 214.192 151.631 233.041 150.986Z" fill="#A3EFF4"/>
</g>
<path d="M348.276 238.485C347.774 232.996 344.151 228.358 339.089 226.722C328.107 223.165 308.279 217.5 293.527 217.5C271.379 217.5 246.691 223.17 233.384 226.731C226.944 228.456 221.076 232.214 218.263 238.485C216.914 241.49 215.564 245.249 214.546 249.766C212.656 258.174 219.935 265.066 228.208 264.362L264.744 261.263C268.659 260.932 272.012 264.148 272.013 268.234C272.013 271.623 269.679 274.519 266.458 275.031C259.71 276.1 248.179 277.706 239.74 277.706C221.839 277.706 174.137 269.372 158.627 266.574C155.312 265.973 151.936 265.559 148.715 266.574C144.004 268.071 137.175 272.007 133.964 282.401C131.563 290.17 136.995 297.697 144.373 300.45C167.033 308.908 215.507 325.873 239.735 325.873C271.738 325.873 317.03 318.958 337.081 315.608C343.177 314.633 347.857 309.477 348.442 303.09C349.176 295.002 350 283.342 350 271.687C350 259.135 349.048 246.583 348.276 238.485Z" fill="#FFD260"/>
<defs>
<clipPath id="clip0_51_417">
<rect width="350" height="350" rx="175" fill="white"/>
</clipPath>
</defs>
</svg>
