<svg width="364" height="350" viewBox="0 0 364 350" fill="none" xmlns="http://www.w3.org/2000/svg">
<rect width="350" height="350" rx="175" fill="#2EC8C8"/>
<path fill-rule="evenodd" clip-rule="evenodd" d="M74.9068 188.712C72.2814 188.712 69.7636 189.755 67.9072 191.611C66.0507 193.468 65.0078 195.986 65.0078 198.611C65.0078 201.236 66.0507 203.754 67.9072 205.611C69.7636 207.467 72.2814 208.51 74.9068 208.51H154.098C156.724 208.51 159.242 207.467 161.098 205.611C162.955 203.754 163.997 201.236 163.997 198.611C163.997 195.986 162.955 193.468 161.098 191.611C159.242 189.755 156.724 188.712 154.098 188.712H74.9068ZM65.0078 233.257C65.0078 230.632 66.0507 228.114 67.9072 226.258C69.7636 224.401 72.2814 223.358 74.9068 223.358H154.098C156.724 223.358 159.242 224.401 161.098 226.258C162.955 228.114 163.997 230.632 163.997 233.257C163.997 235.883 162.955 238.4 161.098 240.257C159.242 242.113 156.724 243.156 154.098 243.156H74.9068C72.2814 243.156 69.7636 242.113 67.9072 240.257C66.0507 238.4 65.0078 235.883 65.0078 233.257ZM65.0078 267.904C65.0078 265.278 66.0507 262.76 67.9072 260.904C69.7636 259.048 72.2814 258.005 74.9068 258.005H154.098C156.724 258.005 159.242 259.048 161.098 260.904C162.955 262.76 163.997 265.278 163.997 267.904C163.997 270.529 162.955 273.047 161.098 274.903C159.242 276.76 156.724 277.803 154.098 277.803H74.9068C72.2814 277.803 69.7636 276.76 67.9072 274.903C66.0507 273.047 65.0078 270.529 65.0078 267.904Z" fill="#F2F9FF"/>
<path fill-rule="evenodd" clip-rule="evenodd" d="M132.616 73.4016C130.759 70.9753 128.368 69.0094 125.628 67.6564C122.888 66.3034 119.873 65.5996 116.818 65.5996C113.762 65.5996 110.747 66.3034 108.008 67.6564C105.268 69.0094 102.876 70.9753 101.019 73.4016C93.6366 82.8116 86.9265 92.7302 80.9388 103.084C74.9677 113.443 69.7331 124.21 65.2737 135.305C64.101 138.127 63.5942 141.182 63.7925 144.232C63.9908 147.282 64.8889 150.245 66.4172 152.892C67.9455 155.539 70.063 157.799 72.6053 159.495C75.1477 161.192 78.0466 162.28 81.0774 162.675C90.135 163.967 102.548 165.215 116.813 165.215C128.769 165.206 140.711 164.356 152.548 162.67C155.579 162.276 158.477 161.188 161.02 159.492C163.562 157.796 165.68 155.537 167.208 152.891C168.737 150.244 169.635 147.281 169.833 144.231C170.031 141.181 169.524 138.127 168.352 135.305C163.893 124.21 158.658 113.443 152.687 103.084C146.701 92.7327 139.994 82.8109 132.616 73.4016Z" fill="#C3F6F7"/>
<path d="M235.718 63.75C222.117 63.75 212.337 64.4726 205.417 65.3784C193.048 66.9919 185.139 76.8315 184.426 88.5271C184.045 94.808 183.748 103.593 183.748 115.72C183.748 127.846 184.045 136.626 184.431 142.912C185.139 154.608 193.044 164.447 205.417 166.061C212.337 166.966 222.117 167.689 235.718 167.689C249.319 167.689 259.099 166.966 266.019 166.061C278.387 164.447 286.297 154.608 287.009 142.912C287.391 136.631 287.688 127.846 287.688 115.72C287.688 103.593 287.391 94.813 287.004 88.5271C286.297 76.8315 278.392 66.9919 266.019 65.3784C259.099 64.4726 249.319 63.75 235.718 63.75Z" fill="#A3EFF4"/>
<path d="M273.74 134.62C267.538 133.793 261.262 133.793 255.06 134.62C244.532 136.036 237.901 145.894 237.249 156.343C236.154 173.666 234.611 203.746 234.447 237.161L232.223 235.47C226.357 231.048 220.354 226.831 214.224 222.827C205.829 217.345 194.126 216.454 187.03 225.343C182.637 230.896 179.417 237.373 177.585 244.34C176.207 249.433 177.364 254.682 179.996 258.854C187.853 271.312 208.535 302.133 233.204 322.762C236.438 325.464 240.278 327.114 244.277 327.741C272.969 332.225 304.973 334.317 334.13 329.003C337.73 328.355 341.124 326.785 344.014 324.432C346.904 322.078 349.202 319.013 350.705 315.505C359.907 293.88 364.174 270.282 363.161 246.606C362.52 232.092 353.558 219.778 340.528 215.139C327.878 210.638 315.683 208.39 306.68 207.273C302.632 206.764 298.568 206.413 294.496 206.221C294.269 194.086 292.811 171.562 291.762 156.468C291.024 145.965 284.353 136.024 273.74 134.62Z" fill="#FFD260"/>
</svg>
