<svg width="350" height="350" viewBox="0 0 350 350" fill="none" xmlns="http://www.w3.org/2000/svg">
<g clip-path="url(#clip0_51_425)">
<rect width="350" height="350" rx="175" fill="#2EC8C8"/>
<path d="M80.625 118.75C112.035 118.75 137.5 144.215 137.5 175.625C137.515 185.346 135.027 194.907 130.276 203.388C132.659 209.697 134.896 216.982 136.36 224.259C136.562 225.224 136.515 226.223 136.226 227.165C135.936 228.107 135.412 228.959 134.704 229.644C133.995 230.328 133.124 230.821 132.173 231.078C131.222 231.334 130.221 231.345 129.264 231.11C122.311 229.479 115.25 227.217 109.017 224.917C100.385 229.899 90.5914 232.515 80.625 232.5C49.2148 232.5 23.75 207.035 23.75 175.625C23.75 144.215 49.2148 118.75 80.625 118.75Z" fill="#C3F6F7"/>
<path fill-rule="evenodd" clip-rule="evenodd" d="M64.6239 188.019C63.8785 186.921 62.7313 186.16 61.43 185.901C60.1287 185.641 58.7776 185.904 57.6681 186.632C56.5587 187.36 55.7799 188.495 55.4998 189.792C55.2197 191.089 55.4608 192.444 56.171 193.565C61.722 202.023 71.4008 205.958 80.6196 205.958C89.8384 205.958 99.5173 202.025 105.068 193.565C105.445 193.01 105.708 192.386 105.841 191.728C105.974 191.071 105.975 190.394 105.844 189.736C105.713 189.078 105.452 188.453 105.077 187.897C104.702 187.341 104.22 186.866 103.659 186.498C103.098 186.13 102.47 185.877 101.811 185.754C101.151 185.632 100.474 185.641 99.8187 185.783C99.1632 185.924 98.5424 186.195 97.9924 186.579C97.4425 186.963 96.9744 187.452 96.6154 188.019C93.3192 193.041 87.1994 195.847 80.6196 195.847C74.0398 195.847 67.9201 193.041 64.6239 188.019ZM98.3141 152.875C96.9733 152.875 95.6874 153.408 94.7393 154.356C93.7912 155.304 93.2585 156.59 93.2585 157.931V162.986C93.2585 164.327 93.7912 165.613 94.7393 166.561C95.6874 167.509 96.9733 168.042 98.3141 168.042C99.6549 168.042 100.941 167.509 101.889 166.561C102.837 165.613 103.37 164.327 103.37 162.986V157.931C103.37 156.59 102.837 155.304 101.889 154.356C100.941 153.408 99.6549 152.875 98.3141 152.875ZM67.9808 157.931C67.9808 156.59 67.4481 155.304 66.5 154.356C65.5519 153.408 64.266 152.875 62.9252 152.875C61.5844 152.875 60.2985 153.408 59.3504 154.356C58.4023 155.304 57.8697 156.59 57.8697 157.931V162.986C57.8697 164.327 58.4023 165.613 59.3504 166.561C60.2985 167.509 61.5844 168.042 62.9252 168.042C64.266 168.042 65.5519 167.509 66.5 166.561C67.4481 165.613 67.9808 164.327 67.9808 162.986V157.931Z" fill="#2EC8C8"/>
<rect x="117.5" y="245" width="116.25" height="130" rx="24" fill="#C3F6F6"/>
<rect x="135" y="265" width="80" height="133.75" rx="12" fill="#F2F9FF"/>
<path d="M303.125 148.75C283.178 148.75 269.196 149.324 260.399 149.868C251.602 150.416 244.604 156.332 243.823 164.252C243.152 171.057 242.5 181.33 242.5 195.553C242.5 209.776 243.152 220.048 243.823 226.853C244.604 234.773 251.602 240.69 260.399 241.237C264.215 241.474 269.005 241.717 274.833 241.914V252.738C274.833 257.865 281.583 260.63 285.953 257.294L305.523 242.353C324.195 242.31 337.409 241.76 345.851 241.237C354.648 240.69 361.643 234.773 362.427 226.853C363.098 220.048 363.75 209.776 363.75 195.553C363.75 181.329 363.098 171.057 362.427 164.252C361.646 156.332 354.648 150.416 345.851 149.868C337.053 149.326 323.072 148.75 303.125 148.75Z" fill="#A3EFF4"/>
<rect x="155" y="253.75" width="40" height="5" rx="2.5" fill="#A3E8E8"/>
</g>
<path d="M241.618 33.75C214.764 33.75 195.941 34.6169 184.097 35.4404C172.254 36.2674 162.833 45.2094 161.781 57.1798C160.878 67.4637 160 82.9895 160 104.486C160 125.982 160.878 141.508 161.781 151.792C162.833 163.763 172.254 172.704 184.097 173.531C189.234 173.89 195.684 174.257 203.53 174.554V190.914C203.53 198.662 212.617 202.841 218.5 197.799L244.847 175.218C269.985 175.153 287.774 174.322 299.139 173.531C310.983 172.704 320.4 163.763 321.455 151.792C322.359 141.508 323.237 125.982 323.237 104.486C323.237 82.9892 322.359 67.4637 321.455 57.1798C320.404 45.2094 310.983 36.2674 299.139 35.4404C287.295 34.6205 268.472 33.75 241.618 33.75Z" fill="#FFD260"/>
<path fill-rule="evenodd" clip-rule="evenodd" d="M254.245 120.683C254.333 123.195 254.333 125.709 254.245 128.221C254.1 131.982 251.289 134.739 247.582 134.939C243.976 135.131 237.748 135.32 227.105 135.32C216.523 135.32 210.302 135.138 206.693 134.957C202.953 134.765 200.109 131.986 199.964 128.192C199.877 125.689 199.877 123.185 199.964 120.683C200.109 116.888 202.953 114.11 206.693 113.917C210.302 113.736 216.523 113.555 227.105 113.555C237.686 113.555 243.907 113.736 247.516 113.917C251.256 114.11 254.1 116.888 254.245 120.683Z" fill="#F2F9FF"/>
<path d="M283.218 80.5878C283.287 81.6869 283.33 82.9963 283.33 84.5344C283.33 86.0835 283.283 87.4 283.215 88.4991C282.975 92.2719 279.986 94.7674 276.431 94.9307C271.472 95.152 261.435 95.417 241.615 95.417C221.863 95.417 211.826 95.1629 206.853 94.9491C203.272 94.7968 200.25 92.2829 200.011 88.4811C199.933 87.1671 199.895 85.8509 199.899 84.5344C199.899 82.9963 199.942 81.6869 200.011 80.5878C200.25 76.786 203.276 74.276 206.852 74.1198C211.822 73.9024 221.863 73.6519 241.615 73.6519C261.366 73.6519 271.403 73.906 276.377 74.1198C279.957 74.2721 282.979 76.786 283.218 80.5878Z" fill="#F2F9FF"/>
<defs>
<clipPath id="clip0_51_425">
<rect width="350" height="350" rx="175" fill="white"/>
</clipPath>
</defs>
</svg>
