<svg width="350" height="350" viewBox="0 0 350 350" fill="none" xmlns="http://www.w3.org/2000/svg">
<g clip-path="url(#clip0_51_409)">
<rect width="350" height="350" rx="175" fill="#2EC8C8"/>
<path d="M-7.5 323.125C-7.5 339.016 -6.91038 350.009 -6.135 357.64C-4.51154 373.725 8.38731 382.948 22.5138 383.425C30.0069 383.657 37.5033 383.765 45 383.748C54.5873 383.748 61.9373 383.611 67.4862 383.425C81.6127 382.948 94.5115 373.725 96.135 357.64C96.9104 350.009 97.5 339.016 97.5 323.125C97.5 307.234 96.9104 296.241 96.1431 288.61C94.5115 272.525 81.6046 263.302 67.4862 262.825C59.9931 262.593 52.4967 262.485 45 262.502C37.5033 262.485 30.0069 262.593 22.5138 262.825C8.38731 263.302 -4.51154 272.525 -6.135 288.61C-6.91038 296.241 -7.5 307.234 -7.5 323.125Z" fill="#C3F6F7"/>
<path d="M251.25 266.251C251.25 312.327 252.329 338.485 253.408 353.168C254.601 369.456 266.599 382.162 283.664 383.199C289.091 383.523 295.9 383.75 304.375 383.75C312.85 383.75 319.659 383.523 325.086 383.199C342.151 382.162 354.149 369.456 355.342 353.168C356.421 338.485 357.5 312.327 357.5 266.251C357.5 220.175 356.421 194.018 355.342 179.334C354.149 163.046 342.151 150.34 325.086 149.303C318.189 148.912 311.283 148.728 304.375 148.752C295.9 148.752 289.091 148.979 283.664 149.303C266.599 150.34 254.601 163.046 253.408 179.334C252.329 194.018 251.25 220.175 251.25 266.251Z" fill="#C3F6F7"/>
<path d="M122.5 298.751C122.5 326.363 123.3 343.792 124.212 354.745C125.61 371.324 138.266 382.649 154.267 383.353C159.63 383.588 166.43 383.75 175 383.75C183.562 383.75 190.37 383.588 195.733 383.345C211.726 382.649 224.39 371.324 225.78 354.745C226.7 343.792 227.5 326.363 227.5 298.751C227.5 271.138 226.7 253.709 225.788 242.757C224.39 226.178 211.734 214.853 195.733 214.148C188.826 213.866 181.913 213.734 175 213.752C166.438 213.752 159.63 213.913 154.267 214.156C138.274 214.853 125.61 226.178 124.22 242.757C123.3 253.709 122.5 271.138 122.5 298.751Z" fill="#F2F9FF"/>
</g>
<path d="M309.932 27.1723C290.784 26.4489 271.617 28.0051 252.833 31.8084C238.161 34.8256 234.184 52.5534 243.919 62.3262L257.038 75.5135C252.863 79.3254 247.457 84.3296 241.362 90.1652C227.159 103.757 208.912 122.118 193.273 140.788C193.134 140.942 192.961 141.062 192.768 141.139C192.575 141.215 192.367 141.246 192.16 141.229C191.975 141.228 191.793 141.188 191.625 141.112C191.547 141.074 191.482 141.015 191.435 140.942C183.497 129.735 175.238 118.76 166.669 108.033C157.622 96.7957 141.448 93.9036 129.12 102.3C111.496 114.31 74.8928 141.98 33.9458 189.019C31.4626 191.874 28.9647 194.803 26.4449 197.798C23.9417 200.784 22.7218 204.647 23.0535 208.537C23.3853 212.426 25.2415 216.024 28.2139 218.539C31.1863 221.054 35.0313 222.28 38.9031 221.946C42.7749 221.613 46.3564 219.748 48.8596 216.762C51.2549 213.907 53.6355 211.118 56.0088 208.395C94.2017 164.513 128.175 138.617 144.54 127.365C152.508 137.377 160.198 147.61 167.599 158.052C179.304 174.521 203.221 174.624 215.688 159.745C230.338 142.252 247.72 124.73 261.572 111.477C266.91 106.366 272.314 101.324 277.782 96.3541L291.825 110.454C301.552 120.234 319.191 116.238 322.202 101.498C327.307 76.507 327.256 54.5477 326.816 44.1348C326.645 39.6912 324.81 35.4763 321.681 32.3319C318.551 29.1875 314.355 27.345 309.932 27.1723Z" fill="#FFD260"/>
<defs>
<clipPath id="clip0_51_409">
<rect width="350" height="350" rx="175" fill="white"/>
</clipPath>
</defs>
</svg>
