<svg width="350" height="350" viewBox="0 0 350 350" fill="none" xmlns="http://www.w3.org/2000/svg">
<g clip-path="url(#clip0_51_440)">
<rect width="350" height="350" rx="175" fill="#2EC8C8"/>
<path d="M185 152.5C185 164.567 189.846 176.14 198.473 184.673C207.1 193.206 218.8 198 231 198C243.2 198 254.9 193.206 263.527 184.673C272.154 176.14 277 164.567 277 152.5C277 140.433 272.154 128.86 263.527 120.327C254.9 111.794 243.2 107 231 107C218.8 107 207.1 111.794 198.473 120.327C189.846 128.86 185 140.433 185 152.5Z" fill="#A3EFF4"/>
<path d="M267.527 215.695C285.434 216.457 299.563 227.58 302.555 242.658C305.645 258.283 308.087 358.995 309.878 374.766C311.245 386.759 300.965 397.166 286.854 397.844C282.871 398.035 278.396 398.225 273.457 398.385L270.483 439.642C269.769 449.516 261.677 457.897 250.165 459.04C244.628 459.589 238.251 460 231.499 460C224.747 460 218.371 459.589 212.833 459.04C201.33 457.897 193.23 449.516 192.524 439.642L189.541 398.385C185.074 398.238 180.608 398.057 176.145 397.844C162.042 397.159 151.763 386.759 153.12 374.759C155.219 356.229 158.006 254.986 160.453 242.658C163.445 227.58 177.574 216.449 195.471 215.695C207.472 215.211 219.485 214.979 231.499 215.001C246.11 215.001 258.042 215.299 267.527 215.695Z" fill="#A3EFF4"/>
<path d="M72 152.5C72 164.567 76.8464 176.14 85.4731 184.673C94.0998 193.206 105.8 198 118 198C130.2 198 141.9 193.206 150.527 184.673C159.154 176.14 164 164.567 164 152.5C164 140.433 159.154 128.86 150.527 120.327C141.9 111.794 130.2 107 118 107C105.8 107 94.0998 111.794 85.4731 120.327C76.8464 128.86 72 140.433 72 152.5Z" fill="#C3F6F6"/>
<path d="M154.527 215.695C172.434 216.457 186.563 227.58 189.555 242.658C192.645 258.283 195.087 358.995 196.878 374.766C198.245 386.759 187.965 397.166 173.854 397.844C169.871 398.035 165.396 398.225 160.457 398.385L157.483 439.642C156.769 449.516 148.677 457.897 137.165 459.04C131.628 459.589 125.251 460 118.499 460C111.747 460 105.371 459.589 99.8333 459.04C88.3302 457.897 80.2297 449.516 79.5241 439.642L76.5412 398.385C72.0739 398.238 67.6082 398.057 63.1446 397.844C49.0425 397.159 38.7628 386.759 40.1204 374.759C42.2192 356.229 45.0057 254.986 47.4528 242.658C50.4447 227.58 64.5736 216.449 82.4714 215.695C94.4722 215.211 106.485 214.979 118.499 215.001C133.11 215.001 145.042 215.299 154.527 215.695Z" fill="#C3F6F6"/>
</g>
<defs>
<clipPath id="clip0_51_440">
<rect width="350" height="350" rx="175" fill="white"/>
</clipPath>
</defs>
</svg>
