<svg width="31" height="30" viewBox="0 0 31 30" fill="none" xmlns="http://www.w3.org/2000/svg">
<g clip-path="url(#clip0_177_3539)">
<path d="M25.7441 9.429C25.6211 9.506 22.6931 11.131 22.6931 14.734C22.8311 18.843 26.3881 20.284 26.4491 20.284C26.3881 20.361 25.9121 22.247 24.5021 24.224C23.3831 25.927 22.1411 27.644 20.2551 27.644C18.4611 27.644 17.8171 26.509 15.7471 26.509C13.5241 26.509 12.8951 27.644 11.1931 27.644C9.30712 27.644 7.97312 25.835 6.79312 24.148C5.26012 21.94 3.95712 18.475 3.91112 15.148C3.88012 13.385 4.21812 11.652 5.07612 10.18C6.28712 8.125 8.44912 6.73 10.8101 6.684C12.6191 6.623 14.2291 7.926 15.3331 7.926C16.3911 7.926 18.3691 6.684 20.6071 6.684C21.5731 6.685 24.1491 6.976 25.7441 9.429ZM15.1801 6.332C14.8581 4.722 15.7471 3.112 16.5751 2.085C17.6331 0.843 19.3041 0 20.7451 0C20.8371 1.61 20.2541 3.189 19.2121 4.339C18.2771 5.581 16.6671 6.516 15.1801 6.332Z" fill="white"/>
</g>
<defs>
<clipPath id="clip0_177_3539">
<rect width="30" height="30" fill="white" transform="translate(0.5)"/>
</clipPath>
</defs>
</svg>
