<svg width="42" height="42" viewBox="0 0 42 42" fill="none" xmlns="http://www.w3.org/2000/svg">
<g id="Group 27073">
<circle id="Ellipse 36" cx="21" cy="21" r="21" fill="#2EC8C8"/>
<path id="Arrow 1 (Stroke)" fill-rule="evenodd" clip-rule="evenodd" d="M24.0887 11.356L32.4818 20.0356C32.9968 20.5682 32.9968 21.4318 32.4818 21.9644L24.0887 30.644C23.5737 31.1767 22.7386 31.1767 22.2236 30.644C21.7085 30.1114 21.7085 29.2479 22.2236 28.7152L28.3652 22.3639L10.4477 22.3639C9.71937 22.3639 9.12891 21.7533 9.12891 21C9.12891 20.2468 9.71937 19.6362 10.4477 19.6362L28.3652 19.6362L22.2236 13.2848C21.7085 12.7522 21.7085 11.8886 22.2236 11.356C22.7386 10.8234 23.5737 10.8234 24.0887 11.356Z" fill="white"/>
</g>
</svg>
