<svg width="42" height="42" viewBox="0 0 42 42" fill="none" xmlns="http://www.w3.org/2000/svg">
<g id="Group 27074">
<circle id="Ellipse 36" cx="21" cy="21" r="21" transform="rotate(180 21 21)" fill="#D9D9D9"/>
<path id="Arrow 1 (Stroke)" fill-rule="evenodd" clip-rule="evenodd" d="M17.9113 30.644L9.51824 21.9644C9.0032 21.4318 9.0032 20.5682 9.51824 20.0356L17.9113 11.356C18.4263 10.8233 19.2614 10.8233 19.7764 11.356C20.2915 11.8886 20.2915 12.7521 19.7764 13.2848L13.6348 19.6361L31.5523 19.6361C32.2806 19.6361 32.8711 20.2467 32.8711 21C32.8711 21.7532 32.2806 22.3638 31.5523 22.3638L13.6348 22.3638L19.7764 28.7152C20.2915 29.2478 20.2915 30.1114 19.7764 30.644C19.2614 31.1766 18.4263 31.1766 17.9113 30.644Z" fill="white"/>
</g>
</svg>
