<svg width="73" height="72" viewBox="0 0 73 72" fill="none" xmlns="http://www.w3.org/2000/svg">
<g id="channel_icon">
<path id="&#60;Path&#62;" d="M56.4242 0H16.9099C7.95968 0 0.704102 7.25558 0.704102 16.2058V55.7201C0.704102 64.6703 7.95968 71.9259 16.9099 71.9259H56.4242C65.3744 71.9259 72.63 64.6703 72.63 55.7201V16.2058C72.63 7.25558 65.3744 0 56.4242 0Z" fill="#9E9E9E"/>
<path id="Vector" d="M36.6667 11.9878C30.3081 11.9878 24.2099 14.5138 19.7136 19.01C15.2174 23.5062 12.6914 29.6045 12.6914 35.9631C12.6914 42.3218 15.2174 48.42 19.7136 52.9162C24.2099 57.4124 30.3081 59.9384 36.6667 59.9384C43.0254 59.9384 49.1236 57.4124 53.6198 52.9162C58.1161 48.42 60.642 42.3218 60.642 35.9631C60.642 29.6045 58.1161 23.5062 53.6198 19.01C49.1236 14.5138 43.0254 11.9878 36.6667 11.9878ZM15.6484 37.7746H22.3348C22.4414 40.1987 22.7797 42.6069 23.3471 44.9672H17.593C16.52 42.7052 15.8614 40.2691 15.6484 37.7746ZM38.4782 23.3894V15.1579C41.0454 16.1335 43.1548 18.0339 44.3921 20.4857C44.9382 21.4101 45.4204 22.3718 45.8306 23.3627L38.4782 23.3894ZM47.056 26.9857C47.674 29.3379 48.0417 31.7488 48.1482 34.1783H38.4782V26.9857H47.056ZM34.8552 15.1579V23.3894H27.5028C27.9138 22.3976 28.3945 21.4362 28.9413 20.5123C30.1733 18.0505 32.2835 16.1399 34.8552 15.1579ZM34.8552 26.9857V34.1783H25.2118C25.3184 31.7488 25.686 29.3379 26.3041 26.9857H34.8552ZM22.3348 34.1516H15.6484C15.8614 31.6571 16.52 29.221 17.593 26.959H23.3471C22.7786 29.3183 22.4396 31.7271 22.3348 34.1516ZM25.2118 37.7746H34.8552V44.9672H26.3041C25.6861 42.6151 25.32 40.204 25.2118 37.7746ZM34.8819 48.4303V56.6618C32.3147 55.6862 30.2052 53.7858 28.968 51.3339C28.4211 50.4101 27.9404 49.4487 27.5295 48.4569L34.8819 48.4303ZM38.4782 56.6618V48.5635H45.8306C45.4197 49.5552 44.939 50.5167 44.3921 51.4405C43.1548 53.8923 41.0454 55.7927 38.4782 56.7683V56.6618ZM38.4782 44.834V37.6414H48.1216C48.0134 40.0708 47.6473 42.4819 47.0294 44.834H38.4782ZM51.0253 37.6414H57.7117C57.4987 40.1359 56.8401 42.572 55.767 44.834H49.9863C50.5458 42.5164 50.8841 40.1535 50.9986 37.7746L51.0253 37.6414ZM51.0253 34.0451C50.9033 31.6644 50.5554 29.3006 49.9863 26.9857H55.7404C56.814 29.25 57.472 31.6848 57.6851 34.1783L51.0253 34.0451ZM53.6892 23.3894H48.9208C48.058 20.966 46.8074 18.6988 45.2179 16.6763C48.5328 18.1643 51.4123 20.4752 53.5826 23.3894H53.6892ZM28.1155 16.6763C26.526 18.6988 25.2755 20.966 24.4127 23.3894H19.7508C21.9212 20.4752 24.8006 18.1643 28.1155 16.6763ZM19.7242 48.6434H24.4127C25.2755 51.0667 26.526 53.334 28.1155 55.3565C24.7914 53.8461 21.9111 51.507 19.7508 48.5635L19.7242 48.6434ZM45.1913 55.3565C46.7808 53.334 48.0313 51.0667 48.8941 48.6434H53.5826C51.399 51.5185 48.5207 53.7918 45.2179 55.2499L45.1913 55.3565Z" fill="white"/>
</g>
</svg>
