<svg width="73" height="72" viewBox="0 0 73 72" fill="none" xmlns="http://www.w3.org/2000/svg">
<path d="M36.7619 0C21.7436 0 17.3513 0.015493 16.4975 0.0863184C13.4155 0.342507 11.4977 0.827771 9.40833 1.86802C7.79815 2.66757 6.52828 3.59439 5.275 4.89359C2.99254 7.26292 1.60923 10.1778 1.10848 13.6427C0.865015 15.3248 0.794189 15.6679 0.779803 24.2599C0.77427 27.1239 0.779803 30.8931 0.779803 35.9489C0.779803 50.955 0.796403 55.3428 0.868335 56.195C1.11733 59.194 1.58765 61.0808 2.58364 63.1447C4.48707 67.0954 8.1224 70.0612 12.4051 71.1679C13.888 71.5497 15.5259 71.7599 17.6285 71.8595C18.5193 71.8983 27.5994 71.9259 36.6849 71.9259C45.7705 71.9259 54.8561 71.9149 55.7248 71.8706C58.1594 71.7561 59.5732 71.5663 61.1363 71.1623C63.2598 70.6178 65.2389 69.6162 66.9353 68.2276C68.6317 66.8389 70.0045 65.0967 70.9578 63.1226C71.9344 61.1085 72.4296 59.1497 72.6537 56.3073C72.7024 55.6875 72.7229 45.8069 72.7229 35.9394C72.7229 26.0704 72.7008 16.2079 72.6521 15.5882C72.4252 12.6999 71.93 10.7577 70.9218 8.70488C70.0946 7.02444 69.1761 5.7695 67.8426 4.48634C65.4633 2.21329 62.5528 0.829985 59.084 0.329781C57.4036 0.0868717 57.0688 0.0149397 48.4702 0H36.7619Z" fill="black"/>
<path fill-rule="evenodd" clip-rule="evenodd" d="M46.0597 30.3428C48.9399 32.3995 52.4648 33.6092 56.2758 33.6092V26.2826C55.5548 26.2826 54.8377 26.2063 54.1281 26.0575V31.8271C50.3209 31.8271 46.7959 30.6175 43.9157 28.5607V43.5153C43.9157 50.9983 37.8501 57.0579 30.3691 57.0579C27.5805 57.0579 24.9825 56.2146 22.8271 54.7684C25.2839 57.2831 28.7173 58.8438 32.5131 58.8438C39.994 58.8438 46.0597 52.7803 46.0597 45.3011V30.3466V30.3428ZM48.7072 22.9514C47.2346 21.3449 46.2695 19.269 46.0597 16.9718V16.0293H44.0263C44.5413 18.9485 46.2847 21.4403 48.7072 22.9514ZM27.5576 49.0293C26.7374 47.9532 26.291 46.6329 26.2949 45.2782C26.2949 41.8554 29.0683 39.085 32.494 39.085C33.1311 39.085 33.7644 39.1804 34.3709 39.375V31.8844C33.6614 31.789 32.9442 31.747 32.227 31.7623V37.593C31.6204 37.3984 30.9833 37.303 30.3462 37.303C26.9243 37.303 24.1509 40.0771 24.1509 43.5C24.1509 45.9193 25.5357 48.0142 27.5576 49.0369V49.0293Z" fill="#FE2C55"/>
<path fill-rule="evenodd" clip-rule="evenodd" d="M43.9169 28.5558C46.7971 30.6125 50.322 31.8222 54.1293 31.8222V26.0525C52.0044 25.6022 50.1237 24.4918 48.7083 22.9426C46.2859 21.4315 44.5425 18.9397 44.0275 16.0205H38.6867V45.2885C38.6753 48.6999 35.9057 51.4626 32.4914 51.4626C30.4771 51.4626 28.6918 50.501 27.5587 49.0205C25.5369 47.9978 24.1483 45.9029 24.1483 43.4836C24.1483 40.0607 26.9217 37.2866 30.3474 37.2866C30.9998 37.2866 31.633 37.3896 32.2281 37.5766V31.7459C24.8769 31.8985 18.9639 37.9009 18.9639 45.2885C18.9639 48.9747 20.4364 52.3174 22.8283 54.7596C24.9799 56.2058 27.5778 57.0491 30.3703 57.0491C37.8512 57.0491 43.9169 50.9857 43.9169 43.5065V28.5519V28.5558Z" fill="white"/>
<path fill-rule="evenodd" clip-rule="evenodd" d="M54.1239 26.0573V24.4966C52.2088 24.5004 50.3281 23.9624 48.703 22.9473C50.1412 24.5233 52.0372 25.6108 54.1239 26.0573ZM44.0221 16.0291C43.9764 15.7505 43.9382 15.4682 43.9115 15.1896V14.2471H36.5374V43.5113C36.5259 46.9227 33.7563 49.6854 30.342 49.6854C29.3387 49.6854 28.3927 49.4488 27.5534 49.0252C28.6864 50.5096 30.4756 51.4674 32.486 51.4674C35.9003 51.4674 38.6699 48.7047 38.6813 45.2933V16.0253H44.0221V16.0291ZM32.2228 31.7544V30.0945C31.6086 30.0106 30.9829 29.9686 30.3649 29.9686C22.8802 29.9686 16.8184 36.0321 16.8184 43.5113C16.8184 48.201 19.2026 52.3336 22.8268 54.7644C20.4348 52.3222 18.9623 48.9795 18.9623 45.2933C18.9623 37.9095 24.8753 31.9033 32.2266 31.7506L32.2228 31.7544Z" fill="#25F4EE"/>
</svg>
