<svg width="73" height="72" viewBox="0 0 73 72" fill="none" xmlns="http://www.w3.org/2000/svg">
<g id="channel_icon" clip-path="url(#clip0_345_3143)">
<path id="Vector" d="M71.3439 18.5388C70.9373 17.0086 70.1358 15.6121 69.0199 14.4889C67.9039 13.3658 66.5125 12.5555 64.985 12.139C59.3617 10.627 36.8848 10.627 36.8848 10.627C36.8848 10.627 14.408 10.627 8.78469 12.139C7.25714 12.5555 5.86576 13.3658 4.7498 14.4889C3.63383 15.6121 2.83242 17.0086 2.42578 18.5388C0.921875 24.1866 0.921875 35.9645 0.921875 35.9645C0.921875 35.9645 0.921875 47.7424 2.42578 53.3902C2.83242 54.9204 3.63383 56.3169 4.7498 57.44C5.86576 58.5632 7.25714 59.3735 8.78469 59.79C14.408 61.302 36.8848 61.302 36.8848 61.302C36.8848 61.302 59.3617 61.302 64.985 59.79C66.5125 59.3735 67.9039 58.5632 69.0199 57.44C70.1358 56.3169 70.9373 54.9204 71.3439 53.3902C72.8478 47.7424 72.8478 35.9645 72.8478 35.9645C72.8478 35.9645 72.8478 24.1866 71.3439 18.5388Z" fill="#FF0302"/>
<path id="Vector_2" d="M29.5303 46.6588V25.269L48.3291 35.9639L29.5303 46.6588Z" fill="white"/>
</g>
<defs>
<clipPath id="clip0_345_3143">
<rect width="71.9259" height="71.9259" fill="white" transform="translate(0.851562)"/>
</clipPath>
</defs>
</svg>
