<svg width="73" height="72" viewBox="0 0 73 72" fill="none" xmlns="http://www.w3.org/2000/svg">
<rect x="0.629883" width="71.9259" height="71.9259" rx="17.9815" fill="#EA5220"/>
<path d="M36.5928 71.9262C56.4546 71.9262 72.5558 55.8249 72.5558 35.9631C72.5558 16.1012 56.4546 0 36.5928 0C16.7311 0 0.629883 16.1012 0.629883 35.9631C0.629883 55.8249 16.7311 71.9262 36.5928 71.9262Z" fill="#EA5220"/>
<path d="M21.0325 30.0011C24.4564 30.0011 27.232 27.2255 27.232 23.8016C27.232 20.3777 24.4564 17.6021 21.0325 17.6021C17.6086 17.6021 14.833 20.3777 14.833 23.8016C14.833 27.2255 17.6086 30.0011 21.0325 30.0011Z" fill="white"/>
<path d="M36.5901 30.0011C40.014 30.0011 42.7896 27.2255 42.7896 23.8016C42.7896 20.3777 40.014 17.6021 36.5901 17.6021C33.1662 17.6021 30.3906 20.3777 30.3906 23.8016C30.3906 27.2255 33.1662 30.0011 36.5901 30.0011Z" fill="white"/>
<path d="M36.5901 45.5616C40.014 45.5616 42.7896 42.786 42.7896 39.3621C42.7896 35.9382 40.014 33.1626 36.5901 33.1626C33.1662 33.1626 30.3906 35.9382 30.3906 39.3621C30.3906 42.786 33.1662 45.5616 36.5901 45.5616Z" fill="white"/>
<path d="M36.5901 61.1168C40.014 61.1168 42.7896 58.3412 42.7896 54.9173C42.7896 51.4934 40.014 48.7178 36.5901 48.7178C33.1662 48.7178 30.3906 51.4934 30.3906 54.9173C30.3906 58.3412 33.1662 61.1168 36.5901 61.1168Z" fill="white"/>
<path d="M52.1516 30.0011C55.5755 30.0011 58.3511 27.2255 58.3511 23.8016C58.3511 20.3777 55.5755 17.6021 52.1516 17.6021C48.7278 17.6021 45.9521 20.3777 45.9521 23.8016C45.9521 27.2255 48.7278 30.0011 52.1516 30.0011Z" fill="white"/>
</svg>
