<svg width="73" height="72" viewBox="0 0 73 72" fill="none" xmlns="http://www.w3.org/2000/svg">
<g id="channel_icon">
<path id="Vector" d="M36.9103 0C21.892 0 17.4997 0.015493 16.6459 0.0863184C13.5639 0.342507 11.6461 0.827771 9.55676 1.86802C7.94659 2.66757 6.67672 3.59439 5.42344 4.89359C3.14098 7.26292 1.75767 10.1778 1.25691 13.6427C1.01345 15.3248 0.942627 15.6679 0.92824 24.2599C0.922707 27.1239 0.92824 30.8931 0.92824 35.9489C0.92824 50.955 0.94484 55.3428 1.01677 56.1949C1.26577 59.194 1.73609 61.0808 2.73207 63.1447C4.63551 67.0954 8.27084 70.0612 12.5536 71.1679C14.0365 71.5497 15.6743 71.7599 17.7769 71.8595C18.6678 71.8983 27.7478 71.9259 36.8334 71.9259C45.9189 71.9259 55.0045 71.9149 55.8732 71.8706C58.3079 71.7561 59.7216 71.5663 61.2847 71.1623C63.4083 70.6178 65.3874 69.6162 67.0837 68.2275C68.7801 66.8389 70.1529 65.0967 71.1062 63.1226C72.0828 61.1085 72.5781 59.1497 72.8022 56.3073C72.8509 55.6875 72.8713 45.8069 72.8713 35.9394C72.8713 26.0704 72.8492 16.2079 72.8005 15.5882C72.5736 12.6999 72.0784 10.7577 71.0703 8.70488C70.243 7.02444 69.3245 5.7695 67.991 4.48634C65.6117 2.21329 62.7012 0.829985 59.2325 0.329781C57.552 0.0868717 57.2173 0.0149397 48.6186 0H36.9103Z" fill="url(#paint0_radial_345_3142)"/>
<path id="Vector_2" d="M36.9103 0C21.892 0 17.4997 0.015493 16.6459 0.0863184C13.5639 0.342507 11.6461 0.827771 9.55676 1.86802C7.94659 2.66757 6.67672 3.59439 5.42344 4.89359C3.14098 7.26292 1.75767 10.1778 1.25691 13.6427C1.01345 15.3248 0.942627 15.6679 0.92824 24.2599C0.922707 27.1239 0.92824 30.8931 0.92824 35.9489C0.92824 50.955 0.94484 55.3428 1.01677 56.195C1.26577 59.194 1.73609 61.0808 2.73207 63.1447C4.63551 67.0954 8.27084 70.0612 12.5536 71.1679C14.0365 71.5497 15.6743 71.7599 17.7769 71.8595C18.6678 71.8983 27.7478 71.9259 36.8334 71.9259C45.9189 71.9259 55.0045 71.9149 55.8732 71.8706C58.3079 71.7561 59.7216 71.5663 61.2847 71.1623C63.4083 70.6178 65.3874 69.6162 67.0837 68.2276C68.7801 66.8389 70.1529 65.0967 71.1062 63.1226C72.0828 61.1085 72.5781 59.1497 72.8022 56.3073C72.8509 55.6875 72.8713 45.8069 72.8713 35.9394C72.8713 26.0704 72.8492 16.2079 72.8005 15.5882C72.5736 12.6999 72.0784 10.7577 71.0703 8.70488C70.243 7.02444 69.3245 5.7695 67.991 4.48634C65.6117 2.21329 62.7012 0.829985 59.2325 0.329781C57.552 0.0868717 57.2173 0.0149397 48.6186 0H36.9103Z" fill="url(#paint1_radial_345_3142)"/>
<path id="Vector_3" d="M36.8932 9.40625C29.6801 9.40625 28.7748 9.43779 25.9418 9.56671C23.1144 9.69619 21.1844 10.1438 19.4956 10.8006C17.7488 11.479 16.267 12.3864 14.7907 13.8633C13.3133 15.3395 12.4059 16.8213 11.7253 18.5676C11.0668 20.2569 10.6187 22.1875 10.4914 25.0138C10.3652 27.8469 10.332 28.7526 10.332 35.9658C10.332 43.1789 10.3641 44.0814 10.4925 46.9144C10.6225 49.7419 11.0702 51.6718 11.7264 53.3606C12.4053 55.1074 13.3128 56.5892 14.7896 58.0655C16.2653 59.5429 17.7471 60.4525 19.4929 61.1309C21.1827 61.7877 23.1132 62.2353 25.9402 62.3648C28.7732 62.4937 29.6779 62.5253 36.8904 62.5253C44.1041 62.5253 45.0066 62.4937 47.8396 62.3648C50.6671 62.2353 52.5993 61.7877 54.2891 61.1309C56.0354 60.4525 57.515 59.5429 58.9907 58.0655C60.4681 56.5892 61.3755 55.1074 62.0561 53.3611C62.709 51.6718 63.1572 49.7413 63.29 46.9149C63.4173 44.0819 63.4505 43.1789 63.4505 35.9658C63.4505 28.7526 63.4173 27.8474 63.29 25.0144C63.1572 22.1869 62.709 20.2569 62.0561 18.5682C61.3755 16.8213 60.4681 15.3395 58.9907 13.8633C57.5133 12.3859 56.036 11.4784 54.2875 10.8006C52.5943 10.1438 50.6632 9.69619 47.8357 9.56671C45.0027 9.43779 44.1008 9.40625 36.8855 9.40625H36.8932ZM34.5106 14.1925C35.2177 14.1914 36.0068 14.1925 36.8932 14.1925C43.9846 14.1925 44.8251 14.2179 47.6255 14.3452C50.215 14.4636 51.6205 14.8963 52.5567 15.2599C53.7961 15.7412 54.6798 16.3167 55.6088 17.2463C56.5384 18.1759 57.1138 19.0612 57.5963 20.3006C57.9599 21.2357 58.3931 22.6412 58.511 25.2307C58.6383 28.0306 58.6659 28.8716 58.6659 35.9597C58.6659 43.0477 58.6383 43.8888 58.511 46.6886C58.3926 49.2782 57.9599 50.6836 57.5963 51.6187C57.115 52.8582 56.5384 53.7407 55.6088 54.6697C54.6792 55.5993 53.7967 56.1748 52.5567 56.6562C51.6216 57.0214 50.215 57.453 47.6255 57.5714C44.8256 57.6986 43.9846 57.7263 36.8932 57.7263C29.8013 57.7263 28.9608 57.6986 26.1609 57.5714C23.5714 57.4519 22.166 57.0191 21.2292 56.6556C19.9897 56.1742 19.1044 55.5988 18.1748 54.6692C17.2453 53.7396 16.6698 52.8565 16.1873 51.6165C15.8238 50.6814 15.3905 49.2759 15.2727 46.6864C15.1454 43.8866 15.1199 43.0455 15.1199 35.953C15.1199 28.8605 15.1454 28.0239 15.2727 25.2241C15.3911 22.6345 15.8238 21.2291 16.1873 20.2929C16.6687 19.0534 17.2453 18.1681 18.1748 17.2385C19.1044 16.309 19.9897 15.7335 21.2292 15.251C22.1654 14.8858 23.5714 14.4542 26.1609 14.3353C28.6111 14.2246 29.5606 14.1914 34.5106 14.1859V14.1925ZM51.0704 18.6025C50.44 18.6025 49.8238 18.7894 49.2997 19.1397C48.7755 19.4899 48.367 19.9878 48.1258 20.5702C47.8846 21.1526 47.8216 21.7935 47.9446 22.4118C48.0677 23.0301 48.3714 23.598 48.8172 24.0437C49.263 24.4893 49.831 24.7928 50.4493 24.9157C51.0677 25.0385 51.7085 24.9752 52.2909 24.7338C52.8732 24.4924 53.3709 24.0838 53.721 23.5595C54.0711 23.0352 54.2578 22.4189 54.2576 21.7885C54.2576 20.0289 52.83 18.6014 51.0704 18.6014V18.6025ZM36.8932 22.3263C29.3608 22.3263 23.2538 28.4334 23.2538 35.9658C23.2538 43.4981 29.3608 49.6024 36.8932 49.6024C44.4256 49.6024 50.531 43.4981 50.531 35.9658C50.531 28.4334 44.425 22.3263 36.8927 22.3263H36.8932ZM36.8932 27.1126C41.7824 27.1126 45.7464 31.076 45.7464 35.9658C45.7464 40.8549 41.7824 44.8189 36.8932 44.8189C32.0035 44.8189 28.04 40.8549 28.04 35.9658C28.04 31.076 32.0035 27.1126 36.8932 27.1126Z" fill="white"/>
</g>
<defs>
<radialGradient id="paint0_radial_345_3142" cx="0" cy="0" r="1" gradientUnits="userSpaceOnUse" gradientTransform="translate(20.0364 77.4657) rotate(-90) scale(71.2839 66.3177)">
<stop stop-color="#FFDD55"/>
<stop offset="0.1" stop-color="#FFDD55"/>
<stop offset="0.5" stop-color="#FF543E"/>
<stop offset="1" stop-color="#C837AB"/>
</radialGradient>
<radialGradient id="paint1_radial_345_3142" cx="0" cy="0" r="1" gradientUnits="userSpaceOnUse" gradientTransform="translate(-11.1255 5.18142) rotate(78.6776) scale(31.8645 131.38)">
<stop stop-color="#3771C8"/>
<stop offset="0.128" stop-color="#3771C8"/>
<stop offset="1" stop-color="#6600FF" stop-opacity="0"/>
</radialGradient>
</defs>
</svg>
