<svg width="56" height="56" viewBox="0 0 56 56" fill="none" xmlns="http://www.w3.org/2000/svg">
<rect width="56" height="56" rx="24" fill="#367BA2"/>
<path fill-rule="evenodd" clip-rule="evenodd" d="M28 42.9971C27.2711 42.9971 26.5376 42.9461 25.8042 42.8397C19.3996 41.9142 14.216 36.8251 13.1991 30.464C12.4191 25.5954 13.9535 20.8272 17.4048 17.3835C20.8545 13.9382 25.6302 12.4159 30.4959 13.2033C36.5749 14.1872 41.4751 18.9029 42.69 24.9384C43.3949 28.4407 42.8925 31.9309 41.2351 35.0327C41.1646 35.1662 41.0581 35.4317 41.1451 35.6957L42.4485 39.6014C42.7185 40.4143 42.5115 41.2963 41.904 41.9037C41.609 42.1998 41.2371 42.4076 40.8303 42.5035C40.4235 42.5994 39.9979 42.5798 39.6017 42.4467L35.6945 41.1448C35.432 41.0578 35.1695 41.1643 35.0345 41.2348C32.8718 42.3929 30.4563 42.9984 28.003 42.9971H28ZM23.1794 31.097C21.912 31.097 21.3825 30.1821 21.3825 27.9382C21.3825 25.6959 21.912 24.781 23.1794 24.781C24.4468 24.781 24.9792 25.6959 24.9792 27.9382C24.9792 30.1806 24.4468 31.0955 23.1794 31.0955V31.097ZM31.0208 27.9382C31.0208 30.1806 31.5518 31.0955 32.8207 31.0955C34.0866 31.0955 34.6161 30.1806 34.6161 27.9397C34.6161 25.6974 34.0866 24.781 32.8192 24.781C31.5518 24.781 31.0208 25.6959 31.0208 27.9382Z" fill="white"/>
</svg>
