<svg width="111" height="111" viewBox="0 0 111 111" fill="none" xmlns="http://www.w3.org/2000/svg">
<path d="M0 47.5714C0 21.2985 21.2985 0 47.5714 0H63.4286C89.7015 0 111 21.2985 111 47.5714V63.4286C111 89.7015 89.7015 111 63.4286 111H47.5714C21.2985 111 0 89.7015 0 63.4286V47.5714Z" fill="#367BA2"/>
<path fill-rule="evenodd" clip-rule="evenodd" d="M55.5017 85.2267C54.0569 85.2267 52.6031 85.1256 51.1493 84.9145C38.4545 83.0802 28.1798 72.9928 26.1641 60.3843C24.6182 50.7339 27.6596 41.2828 34.5004 34.4568C41.3383 27.6278 50.8044 24.6102 60.4488 26.171C72.4984 28.1213 82.2112 37.4684 84.6193 49.4318C86.0167 56.3737 85.0207 63.2919 81.7355 69.4401C81.5958 69.7047 81.3847 70.2309 81.5571 70.7541L84.1407 78.4958C84.6758 80.1072 84.2656 81.8553 83.0615 83.0594C82.4767 83.6463 81.7395 84.058 80.9332 84.2482C80.1268 84.4384 79.2833 84.3994 78.4979 84.1356L70.7532 81.555C70.233 81.3826 69.7127 81.5937 69.4451 81.7334C65.1583 84.0291 60.3704 85.2291 55.5077 85.2267H55.5017ZM45.9465 61.6389C43.4343 61.6389 42.3848 59.8254 42.3848 55.3778C42.3848 50.9331 43.4343 49.1196 45.9465 49.1196C48.4587 49.1196 49.5141 50.9331 49.5141 55.3778C49.5141 59.8224 48.4587 61.6359 45.9465 61.6359V61.6389ZM61.4894 55.3778C61.4894 59.8224 62.5418 61.6359 65.057 61.6359C67.5662 61.6359 68.6157 59.8224 68.6157 55.3807C68.6157 50.9361 67.5662 49.1196 65.054 49.1196C62.5418 49.1196 61.4894 50.9331 61.4894 55.3778Z" fill="white"/>
</svg>
