<svg width="31" height="30" viewBox="0 0 31 30" fill="none" xmlns="http://www.w3.org/2000/svg">
<path d="M16.675 15.0008L5.06875 26.607C4.9375 26.332 4.875 26.032 4.875 25.7195V4.28203C4.875 3.96953 4.9375 3.66953 5.06875 3.39453L16.675 15.0008Z" fill="white"/>
<path d="M18.0004 16.3252L21.8816 20.2064L8.10039 27.6439C7.77539 27.8189 7.41914 27.9064 7.06289 27.9064C6.86914 27.9064 6.68164 27.8814 6.49414 27.8314L18.0004 16.3252Z" fill="white"/>
<path d="M18 13.6754L6.5 2.17539C7.03125 2.02539 7.6 2.08789 8.1 2.35664L21.8812 9.79414L18 13.6754Z" fill="white"/>
<path d="M29.1189 15C29.1189 15.8062 28.6752 16.5437 27.9689 16.925L23.6064 19.2812L19.3252 15L23.6064 10.7188L27.9689 13.075C28.6752 13.4562 29.1189 14.1937 29.1189 15Z" fill="white"/>
</svg>
