<svg width="24" height="24" viewBox="0 0 24 24" fill="none" xmlns="http://www.w3.org/2000/svg">
<path d="M12.94 11.9998L3.655 21.2848C3.55 21.0648 3.5 20.8248 3.5 20.5748V3.42484C3.5 3.17484 3.55 2.93484 3.655 2.71484L12.94 11.9998Z" fill="#2EC8C8"/>
<path d="M13.9999 13.0596L17.1049 16.1646L6.07992 22.1146C5.81992 22.2546 5.53492 22.3246 5.24992 22.3246C5.09492 22.3246 4.94492 22.3046 4.79492 22.2646L13.9999 13.0596Z" fill="#2EC8C8"/>
<path d="M13.9998 10.9395L4.7998 1.73953C5.2248 1.61953 5.6798 1.66953 6.0798 1.88453L17.1048 7.83453L13.9998 10.9395Z" fill="#2EC8C8"/>
<path d="M22.8946 11.9992C22.8946 12.6442 22.5396 13.2342 21.9746 13.5392L18.4846 15.4242L15.0596 11.9992L18.4846 8.57422L21.9746 10.4592C22.5396 10.7642 22.8946 11.3542 22.8946 11.9992Z" fill="#2EC8C8"/>
</svg>
