<svg width="187" height="303" viewBox="0 0 187 303" fill="none" xmlns="http://www.w3.org/2000/svg">
<path d="M126.246 68.6438V82.7041L101.951 45.2786H77.0424V82.7041L52.679 45.1772H23.0518L72.2817 121.008C75.2486 125.58 80.3536 128.338 85.8333 128.338C94.734 128.338 101.951 121.181 101.951 112.353V90.9167L121.485 121.008C124.452 125.58 129.557 128.338 135.037 128.338C143.937 128.338 151.154 121.181 151.154 112.353V68.5837C147.423 70.558 143.165 71.6803 138.643 71.6803C134.121 71.6803 129.951 70.5805 126.246 68.64V68.6438Z" fill="url(#paint0_linear_345_3231)"/>
<path d="M138.641 57.6887C145.551 57.6887 151.152 52.1336 151.152 45.2798C151.152 38.426 145.551 32.8672 138.641 32.8672C131.731 32.8672 126.13 38.4223 126.13 45.2761C126.13 45.8166 126.175 46.3458 126.243 46.8675C127.031 52.9669 132.276 57.6887 138.641 57.6887Z" fill="url(#paint1_linear_345_3231)"/>
<path d="M93.5045 167.546C67.0564 167.546 47.5262 169.27 34.1131 171.142C16.5945 173.587 3.84409 194.576 2.77557 220.387C1.6994 246.381 0.566406 287.807 0.566406 347.013C0.566406 406.219 1.6994 447.645 2.77557 473.64C3.84409 499.45 16.5945 520.439 34.1131 522.884C47.5262 524.756 67.0564 526.48 93.5045 526.48C119.953 526.48 139.483 524.756 152.896 522.884C170.415 520.439 183.165 499.45 184.233 473.64C185.31 447.645 186.443 406.219 186.443 347.013C186.443 287.807 185.31 246.381 184.233 220.387C183.165 194.576 170.415 173.587 152.896 171.142C139.483 169.27 119.953 167.546 93.5045 167.546Z" fill="#D9D9D9"/>
<defs>
<linearGradient id="paint0_linear_345_3231" x1="53.5523" y1="51.1173" x2="88.1906" y2="142.752" gradientUnits="userSpaceOnUse">
<stop offset="0.0311932" stop-color="#FFCF40"/>
<stop offset="0.257967" stop-color="#FFEDB5"/>
<stop offset="0.775198" stop-color="#FFBF00"/>
<stop offset="1" stop-color="#EFB91B"/>
</linearGradient>
<linearGradient id="paint1_linear_345_3231" x1="132.087" y1="34.6402" x2="145.626" y2="58.0788" gradientUnits="userSpaceOnUse">
<stop offset="0.0311932" stop-color="#FFCF40"/>
<stop offset="0.257967" stop-color="#FFEDB5"/>
<stop offset="0.775198" stop-color="#FFBF00"/>
<stop offset="1" stop-color="#EFB91B"/>
</linearGradient>
</defs>
</svg>
