<svg width="445" height="348" viewBox="0 0 445 348" fill="none" xmlns="http://www.w3.org/2000/svg">
<g opacity="0.47" clip-path="url(#clip0_345_3197)">
<path d="M237.48 48.4155C198.823 38.7771 169.858 33.337 149.799 30.2707C123.6 26.2658 99.871 42.0453 92.0465 66.7744C84.1662 91.6794 72.4584 131.582 58.0927 189.2C43.727 246.817 35.3313 287.546 30.5969 313.235C25.896 338.743 39.4396 363.815 64.4523 372.579C83.603 379.289 111.731 388.084 150.388 397.722C189.046 407.36 218.01 412.8 238.069 415.866C264.268 419.872 287.997 404.092 295.822 379.363C303.702 354.458 315.41 314.555 329.776 256.938C344.141 199.32 352.537 158.592 357.271 132.902C361.972 107.394 348.429 82.3219 323.416 73.5582C304.265 66.8485 276.137 58.0538 237.48 48.4155Z" fill="white"/>
<g clip-path="url(#clip1_345_3197)">
<rect width="137.689" height="137.689" transform="translate(150.851 109.052) rotate(14)" fill="white"/>
<path d="M191.442 186.053C192.1 187.344 192.687 188.509 193.203 189.547C195.5 187.526 198.615 184.79 202.478 181.421C214.905 170.581 227.39 159.809 239.935 149.106C246.098 143.845 255.848 142.303 262.705 148.703C266.785 152.513 271.419 157.994 274.357 165.168C277.27 172.282 274.085 179.522 269.347 183.874C233.783 216.545 209.215 235.718 195.752 245.527C186.947 251.945 174.957 249.551 169.143 240.43C157.608 222.284 147.215 203.436 138.025 183.996C134.784 177.117 135.566 168.1 142.34 162.799C146.736 159.361 151.402 156.685 155.456 154.693C164.415 150.289 174.334 154.552 178.844 162.573C183.203 170.314 187.403 178.143 191.441 186.056L191.442 186.053Z" fill="#C3F6F7"/>
</g>
<path fill-rule="evenodd" clip-rule="evenodd" d="M388.162 161.052C382.67 158.777 375.292 156.486 366.53 155.62C356.992 154.676 349.524 161.803 347.612 170.295C341.444 197.708 324.962 266.701 305.655 313.237C285.75 290.553 266.305 274.675 254.841 266.153C248.002 261.069 237.708 256.433 228.296 261.493C221.261 265.275 216.014 271.598 212.544 276.841C207.543 284.396 208.461 293.677 212.442 300.915L233.524 339.248C238.916 349.052 242.474 359.758 244.024 370.84L250.927 420.208C251.097 421.422 251.817 422.493 252.876 423.111L252.885 423.115L252.9 423.125L252.946 423.15L253.091 423.233C253.214 423.3 253.386 423.394 253.61 423.514C254.059 423.751 254.715 424.088 255.596 424.512C257.358 425.359 260.015 426.553 263.695 427.999C271.054 430.889 282.502 434.784 299.049 438.91C315.596 443.035 327.533 444.971 335.387 445.874C339.316 446.325 342.222 446.518 344.176 446.597C345.152 446.636 345.89 446.647 346.398 446.649C346.652 446.648 346.848 446.646 346.988 446.644L347.155 446.639L347.207 446.638L347.225 446.637L347.235 446.637C348.797 446.575 350.183 445.609 350.779 444.164L351.607 442.148C352.146 440.833 352.937 438.903 353.94 436.438C355.948 431.51 358.813 424.447 362.239 415.904C369.091 398.819 378.195 375.807 387.193 352.111C389.805 345.235 391.64 338.061 392.584 330.741C401.514 261.489 401.649 204.918 401.188 181.522C401.021 173.012 396.692 164.585 388.162 161.052Z" fill="#2EC8C8"/>
</g>
<defs>
<clipPath id="clip0_345_3197">
<rect width="384" height="384" fill="white" transform="translate(92.8984) rotate(14)"/>
</clipPath>
<clipPath id="clip1_345_3197">
<rect width="137.689" height="137.689" fill="white" transform="translate(150.851 109.052) rotate(14)"/>
</clipPath>
</defs>
</svg>
