<svg width="450" height="371" viewBox="0 0 450 371" fill="none" xmlns="http://www.w3.org/2000/svg">
<g opacity="0.47" clip-path="url(#clip0_345_3183)">
<path d="M189.475 407.525C130.232 392.755 89.9061 378.701 65.8988 369.203C44.4222 360.699 31.502 339.57 33.8566 316.535C36.2516 293.14 41.5992 256.579 53.5288 208.732C65.4585 160.885 77.9009 126.094 86.7697 104.312C95.4952 82.8742 116.832 70.278 139.793 72.8615C165.436 75.7344 207.639 82.2581 266.89 97.0308C326.132 111.802 366.458 125.855 390.463 135.361C411.942 143.857 424.86 164.994 422.508 188.021C420.113 211.417 414.765 247.977 402.835 295.824C390.906 343.671 378.463 378.463 369.594 400.244C360.869 421.682 339.532 434.278 316.569 431.702C290.92 428.82 248.717 422.296 189.475 407.525Z" fill="#C3F6F7"/>
<path d="M325.113 177.656C321.201 176.68 317.79 175.714 314.814 174.783C297.451 169.357 291.156 152.378 294.313 137.368C297.113 124.079 300.4 110.897 304.166 97.8497C308.418 83.1124 321.955 71.078 339.833 74.4389C342.897 75.0132 346.361 75.7697 350.273 76.7451C354.185 77.7205 357.599 78.6788 360.574 79.6102C377.937 85.0359 384.233 102.015 381.076 117.025C378.276 130.314 374.989 143.496 371.223 156.544C366.971 171.281 353.433 183.315 335.556 179.954C332.053 179.291 328.571 178.525 325.113 177.656Z" fill="#2EC8C8"/>
<path d="M177.629 140.884C173.717 139.908 170.305 138.942 167.33 138.011C149.967 132.585 143.671 115.606 146.828 100.596C149.627 87.3066 152.914 74.1249 156.681 61.0774C160.933 46.3402 174.471 34.3057 192.348 37.6666C195.413 38.2409 198.876 38.9974 202.789 39.9728C206.701 40.9483 210.114 41.9066 213.09 42.8379C230.453 48.2636 236.748 65.243 233.591 80.2531C230.791 93.5419 227.504 106.723 223.738 119.771C219.486 134.509 205.949 146.543 188.071 143.182C184.568 142.519 181.086 141.752 177.629 140.884Z" fill="#2EC8C8"/>
<path fill-rule="evenodd" clip-rule="evenodd" d="M176.748 227.087C177.774 222.97 177.123 218.613 174.938 214.976C172.752 211.339 169.211 208.718 165.094 207.692L134.044 199.95C129.927 198.924 125.57 199.575 121.933 201.76C118.296 203.946 115.675 207.487 114.649 211.604C113.622 215.722 114.273 220.078 116.459 223.716C118.644 227.353 122.185 229.973 126.303 231L157.352 238.741C161.47 239.768 165.826 239.117 169.464 236.931C173.101 234.746 175.721 231.205 176.748 227.087ZM219.43 221.239C215.313 220.213 210.956 220.864 207.319 223.05C203.682 225.235 201.061 228.776 200.035 232.893C199.008 237.011 199.659 241.367 201.845 245.005C204.03 248.642 207.571 251.262 211.689 252.289L242.738 260.03C246.856 261.057 251.212 260.406 254.85 258.22C258.487 256.035 261.107 252.494 262.134 248.376C263.16 244.259 262.509 239.902 260.324 236.265C258.138 232.628 254.597 230.008 250.48 228.981L219.43 221.239ZM304.816 242.529C300.699 241.502 296.342 242.153 292.705 244.339C289.068 246.524 286.447 250.065 285.421 254.183C284.394 258.3 285.045 262.657 287.231 266.294C289.416 269.931 292.957 272.551 297.075 273.578L328.124 281.32C332.242 282.346 336.598 281.695 340.236 279.509C343.873 277.324 346.493 273.783 347.52 269.666C348.546 265.548 347.895 261.192 345.71 257.554C343.524 253.917 339.983 251.297 335.866 250.27L304.816 242.529ZM200.077 298.863C195.959 297.837 191.603 298.488 187.965 300.673C184.328 302.859 181.708 306.4 180.681 310.517C179.654 314.635 180.306 318.991 182.491 322.628C184.677 326.266 188.218 328.886 192.335 329.913L223.385 337.654C227.502 338.681 231.858 338.03 235.496 335.844C239.133 333.658 241.753 330.118 242.78 326C243.807 321.883 243.155 317.526 240.97 313.889C238.784 310.251 235.243 307.631 231.126 306.605L200.077 298.863ZM266.067 331.806C267.094 327.689 269.714 324.148 273.351 321.962C276.989 319.777 281.345 319.126 285.463 320.152L316.512 327.894C320.629 328.92 324.17 331.541 326.356 335.178C328.542 338.815 329.193 343.172 328.166 347.289C327.139 351.407 324.519 354.948 320.882 357.133C317.245 359.319 312.888 359.97 308.771 358.943L277.721 351.202C273.604 350.175 270.063 347.555 267.877 343.918C265.692 340.28 265.04 335.924 266.067 331.806ZM145.74 285.315C149.857 286.342 153.398 288.962 155.584 292.6C157.769 296.237 158.421 300.594 157.394 304.711C156.367 308.828 153.747 312.369 150.11 314.555C146.472 316.74 142.116 317.392 137.998 316.365L106.949 308.623C102.832 307.597 99.2906 304.977 97.1051 301.339C94.9195 297.702 94.2684 293.345 95.295 289.228C96.3216 285.111 98.9418 281.57 102.579 279.384C106.217 277.198 110.573 276.547 114.691 277.574L145.74 285.315Z" fill="#2EC8C8"/>
</g>
<defs>
<clipPath id="clip0_345_3183">
<rect width="384" height="384" fill="white" transform="translate(93.1719 0.126465) rotate(14)"/>
</clipPath>
</defs>
</svg>
