<svg width="187" height="335" viewBox="0 0 187 335" fill="none" xmlns="http://www.w3.org/2000/svg">
<path d="M125.876 68.5959V82.6563L101.581 45.2307H76.6722V82.6563L52.3089 45.1294H22.6816L71.9116 120.96C74.8785 125.532 79.9835 128.291 85.4632 128.291C94.3638 128.291 101.581 121.133 101.581 112.305V90.8688L121.115 120.96C124.082 125.532 129.187 128.291 134.667 128.291C143.567 128.291 150.784 121.133 150.784 112.305V68.5358C147.053 70.5102 142.795 71.6324 138.273 71.6324C133.751 71.6324 129.581 70.5327 125.876 68.5921V68.5959Z" fill="url(#paint0_linear_345_3219)"/>
<path d="M138.271 57.6413C145.181 57.6413 150.782 52.0862 150.782 45.2325C150.782 38.3787 145.181 32.8198 138.271 32.8198C131.361 32.8198 125.76 38.3749 125.76 45.2287C125.76 45.7692 125.805 46.2984 125.873 46.8202C126.66 52.9195 131.905 57.6413 138.271 57.6413Z" fill="url(#paint1_linear_345_3219)"/>
<path d="M93.1324 159.511C66.6844 159.511 47.1541 161.234 33.7411 163.106C16.2224 165.551 3.47202 186.54 2.4035 212.351C1.32733 238.345 0.194336 279.772 0.194336 338.977C0.194336 398.183 1.32733 439.61 2.4035 465.604C3.47202 491.415 16.2224 512.404 33.7411 514.848C47.1541 516.72 66.6844 518.444 93.1324 518.444C119.58 518.444 139.111 516.72 152.524 514.848C170.043 512.404 182.793 491.415 183.861 465.604C184.938 439.61 186.071 398.183 186.071 338.977C186.071 279.772 184.938 238.345 183.861 212.351C182.793 186.54 170.043 165.551 152.524 163.106C139.111 161.234 119.58 159.511 93.1324 159.511Z" fill="#D9D9D9"/>
<defs>
<linearGradient id="paint0_linear_345_3219" x1="65.3217" y1="51.945" x2="91.8016" y2="138.971" gradientUnits="userSpaceOnUse">
<stop stop-color="#393939"/>
<stop offset="0.232584" stop-color="#B8B8B8"/>
<stop offset="0.44" stop-color="#2F2F2F"/>
<stop offset="1"/>
</linearGradient>
<linearGradient id="paint1_linear_345_3219" x1="134.089" y1="34.8541" x2="144.938" y2="58.1892" gradientUnits="userSpaceOnUse">
<stop stop-color="#393939"/>
<stop offset="0.232584" stop-color="#B8B8B8"/>
<stop offset="0.44" stop-color="#2F2F2F"/>
<stop offset="1"/>
</linearGradient>
</defs>
</svg>
