<svg width="187" height="271" viewBox="0 0 187 271" fill="none" xmlns="http://www.w3.org/2000/svg">
<path d="M126.594 68.6916V82.752L102.299 45.3264H77.391V82.752L53.0277 45.2251H23.4004L72.6303 121.056C75.5972 125.628 80.7023 128.386 86.1819 128.386C95.0826 128.386 102.299 121.229 102.299 112.4V90.9645L121.834 121.056C124.801 125.628 129.906 128.386 135.385 128.386C144.286 128.386 151.503 121.229 151.503 112.4V68.6316C147.771 70.6059 143.514 71.7281 138.992 71.7281C134.47 71.7281 130.299 70.6284 126.594 68.6879V68.6916Z" fill="url(#paint0_linear_345_3225)"/>
<path d="M138.989 57.7365C145.9 57.7365 151.5 52.1814 151.5 45.3277C151.5 38.4739 145.9 32.915 138.989 32.915C132.079 32.915 126.479 38.4701 126.479 45.3239C126.479 45.8644 126.524 46.3936 126.592 46.9154C127.379 53.0147 132.624 57.7365 138.989 57.7365Z" fill="url(#paint1_linear_345_3225)"/>
<path d="M93.8649 167.594C67.4168 167.594 47.8865 169.318 34.4735 171.19C16.9548 173.635 4.20445 194.624 3.13592 220.434C2.05975 246.429 0.926758 287.855 0.926758 347.061C0.926758 406.267 2.05975 447.693 3.13592 473.688C4.20445 499.498 16.9548 520.487 34.4735 522.932C47.8865 524.804 67.4168 526.528 93.8649 526.528C120.313 526.528 139.843 524.804 153.256 522.932C170.775 520.487 183.525 499.498 184.594 473.688C185.67 447.693 186.803 406.267 186.803 347.061C186.803 287.855 185.67 246.429 184.594 220.434C183.525 194.624 170.775 173.635 153.256 171.19C139.843 169.318 120.313 167.594 93.8649 167.594Z" fill="#D9D9D9"/>
<defs>
<linearGradient id="paint0_linear_345_3225" x1="58.1601" y1="48.0148" x2="108.644" y2="132.129" gradientUnits="userSpaceOnUse">
<stop offset="0.0509551" stop-color="#C1C1C1"/>
<stop offset="0.303255" stop-color="#E4E4E4"/>
<stop offset="1" stop-color="#949494"/>
</linearGradient>
<linearGradient id="paint1_linear_345_3225" x1="133.268" y1="33.7477" x2="150.279" y2="52.2958" gradientUnits="userSpaceOnUse">
<stop offset="0.0509551" stop-color="#C1C1C1"/>
<stop offset="0.303255" stop-color="#E4E4E4"/>
<stop offset="1" stop-color="#949494"/>
</linearGradient>
</defs>
</svg>
