<svg width="100" height="100" viewBox="0 0 100 100" fill="none" xmlns="http://www.w3.org/2000/svg">
<g id="Desktop-Emoji--Streamline-Plump" clip-path="url(#clip0_1_7697)">
<g id="Flat/Business/Office/task-list--task-list-work">
<path id="Union" fill-rule="evenodd" clip-rule="evenodd" d="M50.1589 5.9895C37.8694 5.9895 28.7162 6.51577 22.6993 7.0311C16.1946 7.58819 11.1936 12.6327 10.678 19.1355C10.1473 25.8287 9.58594 36.6537 9.58594 52.4999C9.58594 68.3461 10.1473 79.1712 10.678 85.8643C11.1936 92.3671 16.1946 97.4116 22.6993 97.9687C28.7162 98.4841 37.8694 99.0103 50.1589 99.0103C62.4483 99.0103 71.6015 98.4841 77.6184 97.9687C84.1231 97.4116 89.1241 92.3671 89.6397 85.8643C90.1705 79.1712 90.7318 68.3461 90.7318 52.4999C90.7318 47.9844 90.6862 43.8767 90.6087 40.1562C90.574 38.4908 90.2649 36.7428 89.5043 35.0777C87.9263 31.6223 84.4271 25.1738 77.9873 18.734C71.3595 12.1063 64.7222 8.59294 61.3467 7.08289C59.7091 6.3503 57.993 6.0602 56.3667 6.03564C54.3949 6.00586 52.3256 5.9895 50.1589 5.9895Z" fill="#C3F6F7"/>
<path id="Union_2" fill-rule="evenodd" clip-rule="evenodd" d="M90.4953 38.6132C90.3435 37.4317 90.0328 36.2346 89.5043 35.0774C87.9264 31.6222 84.4272 25.1737 77.9874 18.7338C71.3595 12.106 64.7222 8.5927 61.3467 7.08265C60.2845 6.60739 59.1891 6.31836 58.1064 6.16724C58.2351 13.1189 58.7471 20.9885 59.2138 26.9925C59.652 32.6274 64.0938 37.0693 69.7287 37.5073C75.7159 37.9728 83.5581 38.4828 90.4953 38.6132ZM46.2346 45.7232C47.791 46.8349 48.1516 48.9981 47.0397 50.5547L37.1439 64.4089C36.5521 65.2374 35.6259 65.7634 34.6112 65.8473C33.5966 65.9315 32.5964 65.5647 31.8766 64.8447L23.9599 56.928C22.6071 55.5755 22.6071 53.3825 23.9599 52.03C25.3124 50.6772 27.5054 50.6772 28.8579 52.03L33.8836 57.0555L41.4031 46.5283C42.5148 44.9719 44.678 44.6113 46.2346 45.7232ZM54.1172 52.9946C52.2044 52.9946 50.6537 54.5453 50.6537 56.4582C50.6537 58.371 52.2044 59.9217 54.1172 59.9217H73.9089C75.8218 59.9217 77.3724 58.371 77.3724 56.4582C77.3724 54.5453 75.8218 52.9946 73.9089 52.9946H54.1172ZM46.2346 67.494C47.791 68.6057 48.1516 70.7689 47.0397 72.3255L37.1439 86.1797C36.5521 87.0082 35.6259 87.5343 34.6112 87.6182C33.5966 87.7023 32.5964 87.3355 31.8766 86.6155L23.9599 78.6989C22.6071 77.3463 22.6071 75.1534 23.9599 73.8008C25.3124 72.4481 27.5054 72.4481 28.8579 73.8008L33.8836 78.8263L41.4031 68.2991C42.5148 66.7427 44.678 66.3821 46.2346 67.494ZM54.1172 74.7655C52.2044 74.7655 50.6537 76.3161 50.6537 78.229C50.6537 80.1419 52.2044 81.6926 54.1172 81.6926H73.9089C75.8218 81.6926 77.3724 80.1419 77.3724 78.229C77.3724 76.3161 75.8218 74.7655 73.9089 74.7655H54.1172Z" fill="#2EC8C8"/>
</g>
</g>
<defs>
<clipPath id="clip0_1_7697">
<rect width="99" height="99" fill="white" transform="translate(0.5 0.5)"/>
</clipPath>
</defs>
</svg>
