<svg width="100" height="99" viewBox="0 0 100 99" fill="none" xmlns="http://www.w3.org/2000/svg">
<g id="Desktop-Emoji--Streamline-Plump">
<g id="Group 27052">
<path id="Union" fill-rule="evenodd" clip-rule="evenodd" d="M37.0108 72.5449C36.5147 72.5449 36.0913 72.9036 36.0097 73.393L34.5452 82.1798C34.3006 83.648 33.0303 84.724 31.5418 84.724H26.7792C23.3926 84.724 20.4769 87.1143 19.8127 90.4352L19.7331 90.8332C19.1051 93.9734 21.5068 96.903 24.7091 96.903H63.5214C66.7237 96.903 69.1254 93.9734 68.4973 90.8332L68.4178 90.4352C67.7536 87.1143 64.8379 84.724 61.4514 84.724H56.6885C55.2002 84.724 53.93 83.648 53.6854 82.1798L52.2208 73.393C52.1392 72.9036 51.7158 72.5449 51.2197 72.5449H37.0108Z" fill="#2EC8C8"/>
<path id="Subtract" fill-rule="evenodd" clip-rule="evenodd" d="M85.5494 56.8846C84.1172 56.2998 82.8096 55.4189 81.7382 54.3095C79.9761 52.4853 78.3902 50.6585 76.9088 48.8919C74.2467 49.7529 71.4091 50.2176 68.4699 50.2176C53.3358 50.2176 41.067 37.949 41.067 22.8147C41.067 20.3588 41.3902 17.9783 41.9961 15.7134C30.0553 15.7484 21.4374 16.0762 15.743 16.4026C9.18866 16.7783 3.8249 21.6159 3.23233 28.3253C2.83945 32.7735 2.5 38.9856 2.5 47.1728C2.5 55.36 2.83945 61.5723 3.23232 66.0205C3.8249 72.7298 9.18864 77.5675 15.743 77.9432C21.7684 78.2885 31.067 78.6354 44.1118 78.6354C57.1566 78.6354 66.4553 78.2885 72.4807 77.9432C79.0349 77.5675 84.3987 72.7298 84.9912 66.0205C85.2107 63.5372 85.4132 60.5042 85.5494 56.8846Z" fill="#C3F6F7"/>
<path id="Ellipse 17" d="M54.2617 22.8136C54.2617 24.6796 54.6292 26.5273 55.3433 28.2512C56.0574 29.9751 57.104 31.5414 58.4234 32.8609C59.7428 34.1803 61.3092 35.2269 63.0331 35.941C64.757 36.655 66.6047 37.0225 68.4706 37.0225C70.3366 37.0225 72.1842 36.655 73.9081 35.941C75.632 35.2269 77.1984 34.1803 78.5178 32.8609C79.8373 31.5414 80.8839 29.9751 81.5979 28.2512C82.312 26.5273 82.6795 24.6796 82.6795 22.8136C82.6795 20.9477 82.312 19.1 81.5979 17.3761C80.8839 15.6522 79.8373 14.0858 78.5178 12.7664C77.1984 11.447 75.632 10.4004 73.9081 9.68632C72.1842 8.97226 70.3366 8.60474 68.4706 8.60474C66.6047 8.60474 64.757 8.97226 63.0331 9.68632C61.3092 10.4004 59.7428 11.447 58.4234 12.7664C57.104 14.0858 56.0574 15.6522 55.3433 17.3761C54.6292 19.1 54.2617 20.9477 54.2617 22.8136Z" fill="#C3F6F7"/>
<path id="Union_2" fill-rule="evenodd" clip-rule="evenodd" d="M68.4696 44.1267C72.1794 44.1267 75.6676 43.179 78.7057 41.5123C79.0025 41.871 79.298 42.2292 79.5934 42.5873L80.0598 43.1526C81.978 45.4762 83.9092 47.789 86.1156 50.0731C87.8392 51.8578 90.5435 52.1935 92.4958 50.433C93.0561 49.9278 93.7103 49.3073 94.4676 48.5463C95.225 47.7853 95.8423 47.1278 96.345 46.565C98.0929 44.6072 97.7613 41.8979 95.987 40.1671C93.714 37.9499 91.4123 36.0092 89.1003 34.0814L88.5379 33.6127C88.153 33.2922 87.7682 32.9715 87.3827 32.6492C88.916 29.7065 89.783 26.3611 89.783 22.8134C89.783 11.0423 80.2407 1.5 68.4696 1.5C56.6985 1.5 47.1562 11.0423 47.1562 22.8134C47.1562 34.5844 56.6985 44.1267 68.4696 44.1267ZM57.3055 22.8134C57.3055 16.6476 62.3038 11.6492 68.4696 11.6492C74.6355 11.6492 79.6338 16.6476 79.6338 22.8134C79.6338 28.9792 74.6355 33.9775 68.4696 33.9775C62.3038 33.9775 57.3055 28.9792 57.3055 22.8134Z" fill="#2EC8C8"/>
</g>
</g>
</svg>
