<svg width="100" height="99" viewBox="0 0 100 99" fill="none" xmlns="http://www.w3.org/2000/svg">
<g id="Desktop-Emoji--Streamline-Plump">
<g id="desktop-emoji--device-display-desktop-padlock-smiley">
<path id="Union" fill-rule="evenodd" clip-rule="evenodd" d="M58.2514 73.2188C58.7554 73.2188 59.1857 73.5832 59.2686 74.0805L60.7567 83.0086C61.0052 84.5004 62.2959 85.5938 63.8084 85.5938H67.6164C71.0574 85.5938 74.02 88.0225 74.6949 91.3968L74.7757 91.8013C75.4138 94.9919 72.9735 97.9688 69.7197 97.9688H30.283C27.0292 97.9688 24.5889 94.9919 25.2268 91.8013L25.3079 91.3968C25.9827 88.0225 28.9453 85.5938 32.3864 85.5938H36.1944C37.7068 85.5938 38.9975 84.5004 39.2461 83.0086L40.7341 74.0805C40.8171 73.5832 41.2473 73.2188 41.7514 73.2188H58.2514Z" fill="#2EC8C8"/>
<path id="Union_2" fill-rule="evenodd" clip-rule="evenodd" d="M50 77.3438C66.354 77.3438 77.6988 76.8576 84.709 76.4059C91.3888 75.9757 96.8002 71.0117 97.4451 64.2151C97.9707 58.6773 98.4688 50.4562 98.4688 39.1875C98.4688 27.9188 97.9707 19.6976 97.4451 14.1599C96.8002 7.36329 91.3888 2.39922 84.709 1.96896C77.6988 1.51741 66.354 1.03124 50 1.03125C33.646 1.03125 22.3012 1.51742 15.2909 1.96897C8.61117 2.39924 3.19973 7.36329 2.55481 14.1599C2.02935 19.6976 1.53125 27.9188 1.53125 39.1875C1.53125 50.4562 2.02936 58.6775 2.55481 64.2151C3.19973 71.0117 8.61117 75.9757 15.291 76.4061C22.3012 76.8576 33.646 77.3438 50 77.3438Z" fill="#C3F6F7"/>
</g>
<path id="Union_3" fill-rule="evenodd" clip-rule="evenodd" d="M69.4293 26.9959C69.4293 29.35 67.5065 31.2585 65.1326 31.2585C62.9474 31.2585 61.145 29.6375 60.8755 27.5422C60.8521 27.3625 60.8359 27.181 60.8359 26.9959C60.8359 24.6418 62.7587 22.7334 65.1326 22.7334C67.5047 22.7334 69.4293 24.6418 69.4293 26.9959ZM60.878 39.85V35.0214C62.1503 35.6863 63.5825 36.0655 65.1369 36.0655C66.6895 36.0655 68.1523 35.6791 69.4336 35.0016V50.0355C69.4336 53.0671 66.9537 55.5254 63.897 55.5254C62.0155 55.5254 60.2616 54.5784 59.2427 53.0078L52.5326 42.6731V50.0355C52.5326 53.0671 50.0528 55.5254 46.996 55.5254C45.1145 55.5254 43.3607 54.5784 42.3417 53.0078L25.4336 26.9618H35.6101L43.977 39.85V26.9959H52.5326L60.878 39.85Z" fill="#2EC8C8"/>
</g>
</svg>
