<svg width="100" height="99" viewBox="0 0 100 99" fill="none" xmlns="http://www.w3.org/2000/svg">
<g id="Desktop-Emoji--Streamline-Plump">
<g id="Group 27051">
<path id="Subtract" d="M71.2092 87.3704C71.3552 87.189 71.4969 87.0028 71.6345 86.8116C73.9065 83.6549 74.5559 79.8148 73.8642 76.1847C72.0849 66.845 66.8282 58.7749 59.5186 53.2555C63.6507 48.1213 66.1313 41.5901 66.1313 34.4766C66.1313 25.495 62.1804 17.4361 55.9219 11.9431C58.4834 11.0094 61.2489 10.5 64.1335 10.5C77.3753 10.5 88.1101 21.2347 88.1101 34.4766C88.1101 42.7316 83.9385 50.0091 77.5933 54.3211C86.9952 58.5364 93.9927 67.0387 95.949 77.3064C96.3672 79.5021 95.9502 81.6318 94.7424 83.31C93.5332 84.9901 91.6442 86.0607 89.4188 86.3456C85.9004 86.7962 80.2567 87.223 71.2092 87.3704Z" fill="#2EC8C8"/>
<path id="Union" d="M36.1621 10.5C22.9202 10.5 12.1855 21.2347 12.1855 34.4766C12.1855 42.734 16.3595 50.0135 22.708 54.3251C13.3104 58.5415 6.31652 67.0416 4.36093 77.3064C3.94265 79.5021 4.35963 81.6318 5.56753 83.31C6.77671 84.9901 8.66567 86.0607 10.8911 86.3456C15.2483 86.9037 22.8649 87.425 36.1693 87.425C49.4737 87.425 57.0903 86.9037 61.4474 86.3456C63.6729 86.0607 65.5618 84.9901 66.771 83.31C67.9789 81.6318 68.3959 79.5021 67.9777 77.3064C66.0214 67.0386 59.024 58.5363 49.622 54.3211C55.9672 50.0091 60.1387 42.7316 60.1387 34.4766C60.1387 21.2347 49.404 10.5 36.1621 10.5Z" fill="#C3F6F7"/>
</g>
</g>
</svg>
