<svg width="100" height="99" viewBox="0 0 100 99" fill="none" xmlns="http://www.w3.org/2000/svg">
<g id="Desktop-Emoji--Streamline-Plump">
<g id="Flat/Interface Essential/Bookmark Favorite/ribbon--ribbon-reward-like-social-rating-media">
<path id="Union" d="M76.4949 64.7077C76.329 64.4373 76.0426 64.2635 75.7259 64.241C75.4092 64.2184 75.1012 64.3501 74.8986 64.5945C69.6489 70.9276 62.0435 75.2325 53.4287 76.1679C53.1187 76.2016 52.843 76.3801 52.6855 76.6491C52.528 76.9182 52.5074 77.2461 52.63 77.5329C56.6655 86.9807 59.0733 93.2419 60.2866 96.5331C61.0121 98.5017 63.5146 99.1524 65.0952 97.7474L72.2924 91.35C72.5492 91.1214 72.9069 91.0437 73.2356 91.1449L84.0816 94.4822C86.1051 95.1047 88.1706 93.4342 87.6778 91.2388C86.5976 86.4264 83.6923 76.4328 76.4949 64.7077Z" fill="#2EC8C8"/>
<path id="Union_2" d="M24.8683 64.5945C24.6658 64.3501 24.3578 64.2184 24.0411 64.241C23.7244 64.2635 23.438 64.4373 23.2718 64.7077C16.0748 76.4328 13.1696 86.4262 12.0893 91.2384C11.5965 93.4338 13.6619 95.1043 15.6855 94.4818L26.5316 91.1445C26.8601 91.0433 27.2177 91.121 27.4748 91.3496L34.672 97.747C36.2525 99.152 38.7551 98.5013 39.4806 96.5328C40.6939 93.2415 43.1017 86.9803 47.1372 77.5325C47.2596 77.2457 47.2389 76.918 47.0815 76.649C46.924 76.3799 46.6482 76.2012 46.3384 76.1675C37.7235 75.2324 30.1181 70.9274 24.8683 64.5945Z" fill="#2EC8C8"/>
<path id="Union_3" d="M49.8823 5.5C28.6842 5.5 11.5 22.6843 11.5 43.8823C11.5 65.0804 28.6842 82.2646 49.8823 82.2646C71.0804 82.2646 88.2646 65.0804 88.2646 43.8823C88.2646 22.6843 71.0804 5.5 49.8823 5.5Z" fill="#C3F6F7"/>
<path id="Ellipse 20" d="M71.5336 43.8823C71.5336 55.84 61.8398 65.5338 49.882 65.5338C37.9243 65.5338 28.2305 55.84 28.2305 43.8823C28.2305 31.9245 37.9243 22.2307 49.882 22.2307C61.8398 22.2307 71.5336 31.9245 71.5336 43.8823Z" fill="#2EC8C8"/>
</g>
</g>
</svg>
