<svg width="100" height="99" viewBox="0 0 100 99" fill="none" xmlns="http://www.w3.org/2000/svg">
<g id="Desktop-Emoji--Streamline-Plump">
<g id="Group 27053">
<path id="Union" d="M4.5 57.5134C4.5 44.6994 5.01453 35.5382 5.53083 29.571C6.10118 22.9791 11.3118 17.9919 17.9375 17.5102C24.5449 17.0299 35.0364 16.5269 50 16.5269C64.9637 16.5269 75.4552 17.0299 82.0626 17.5102C88.6882 17.9919 93.8988 22.9791 94.4693 29.571C94.9856 35.5382 95.5 44.6994 95.5 57.5134C95.5 70.3274 94.9856 79.4886 94.4693 85.4558C93.8988 92.0477 88.6882 97.0349 82.0626 97.5167C75.4552 97.9969 64.9637 98.5 50 98.5C35.0364 98.5 24.5449 97.9969 17.9375 97.5167C11.3118 97.0349 6.10118 92.0477 5.53083 85.4556C5.01451 79.4886 4.5 70.3274 4.5 57.5134Z" fill="#C3F6F7"/>
<path id="Union_2" d="M30.1476 30.9209C28.92 30.9209 27.8841 30.8797 27.0124 30.8145C23.5062 30.552 21.5063 27.6906 21.3804 24.6709C21.3192 23.2057 21.2695 21.3556 21.2695 19.2104C21.2695 17.0653 21.3192 15.2152 21.3804 13.75C21.5063 10.7304 23.5062 7.8688 27.0124 7.60635C27.8841 7.5411 28.92 7.5 30.1476 7.5C31.3751 7.5 32.4111 7.5411 33.2827 7.60635C36.789 7.8688 38.7889 10.7304 38.9148 13.75C38.9759 15.2152 39.0256 17.0653 39.0256 19.2104C39.0256 21.3556 38.9759 23.2057 38.9148 24.6709C38.7889 27.6906 36.789 30.552 33.2827 30.8145C32.4111 30.8797 31.3751 30.9209 30.1476 30.9209Z" fill="#2EC8C8"/>
<path id="Union_3" d="M67.632 30.9209C66.4044 30.9209 65.3684 30.8797 64.4968 30.8145C60.9906 30.552 58.9907 27.6906 58.8648 24.6709C58.8036 23.2057 58.7539 21.3556 58.7539 19.2104C58.7539 17.0653 58.8036 15.2152 58.8648 13.75C58.9907 10.7304 60.9906 7.8688 64.4968 7.60635C65.3684 7.5411 66.4044 7.5 67.632 7.5C68.8595 7.5 69.8955 7.5411 70.7671 7.60635C74.2733 7.8688 76.2733 10.7304 76.3991 13.75C76.4603 15.2152 76.51 17.0653 76.51 19.2104C76.51 21.3556 76.4603 23.2057 76.3991 24.6709C76.2733 27.6906 74.2733 30.552 70.7671 30.8145C69.8955 30.8797 68.8595 30.9209 67.632 30.9209Z" fill="#2EC8C8"/>
<path id="Union_4" d="M27.1903 43.6074C23.3767 43.6074 20.2852 46.6658 20.2852 50.4385C20.2852 54.2112 23.3767 57.2696 27.1903 57.2696C31.0039 57.2696 34.0955 54.2112 34.0955 50.4385C34.0955 46.6658 31.0039 43.6074 27.1903 43.6074Z" fill="#2EC8C8"/>
<path id="Union_5" d="M27.1903 65.0762C23.3767 65.0762 20.2852 68.1345 20.2852 71.9073C20.2852 75.68 23.3767 78.7384 27.1903 78.7384C31.0039 78.7384 34.0955 75.68 34.0955 71.9073C34.0955 68.1345 31.0039 65.0762 27.1903 65.0762Z" fill="#2EC8C8"/>
<path id="Union_6" d="M70.5927 43.6074C66.779 43.6074 63.6875 46.6658 63.6875 50.4385C63.6875 54.2112 66.779 57.2696 70.5927 57.2696C74.4063 57.2696 77.4978 54.2112 77.4978 50.4385C77.4978 46.6658 74.4063 43.6074 70.5927 43.6074Z" fill="#2EC8C8"/>
<path id="Union_7" d="M48.8895 43.6074C45.0759 43.6074 41.9844 46.6658 41.9844 50.4385C41.9844 54.2112 45.0759 57.2696 48.8895 57.2696C52.7031 57.2696 55.7947 54.2112 55.7947 50.4385C55.7947 46.6658 52.7031 43.6074 48.8895 43.6074Z" fill="#2EC8C8"/>
<path id="Union_8" d="M48.8895 65.0762C45.0759 65.0762 41.9844 68.1345 41.9844 71.9073C41.9844 75.68 45.0759 78.7384 48.8895 78.7384C52.7031 78.7384 55.7947 75.68 55.7947 71.9073C55.7947 68.1345 52.7031 65.0762 48.8895 65.0762Z" fill="#2EC8C8"/>
</g>
</g>
</svg>
