<svg width="320" height="346" viewBox="0 0 320 346" fill="none" xmlns="http://www.w3.org/2000/svg">
<g clip-path="url(#clip0_256_6747)">
<rect width="320" height="346" rx="32" fill="#C3F6F7"/>
<g filter="url(#filter0_f_256_6747)">
<circle cx="40.7941" cy="40.7941" r="40.7941" transform="matrix(-0.527181 -0.849753 -0.849753 0.527181 81.0259 69.3298)" fill="url(#paint0_linear_256_6747)"/>
</g>
<g filter="url(#filter1_f_256_6747)">
<circle cx="298.571" cy="290.567" r="33.5488" transform="rotate(60 298.571 290.567)" fill="url(#paint1_linear_256_6747)"/>
</g>
<g filter="url(#filter2_f_256_6747)">
<ellipse cx="-7.05112" cy="286.29" rx="81.3888" ry="80.817" fill="url(#paint2_linear_256_6747)" fill-opacity="0.84"/>
</g>
<g filter="url(#filter3_f_256_6747)">
<circle cx="91.5118" cy="251.621" r="34.2488" transform="rotate(90.7792 91.5118 251.621)" fill="url(#paint3_linear_256_6747)"/>
</g>
<g filter="url(#filter4_f_256_6747)">
<ellipse cx="347.004" cy="109.306" rx="77.0049" ry="77.1955" fill="url(#paint4_linear_256_6747)" fill-opacity="0.84"/>
</g>
<g filter="url(#filter5_f_256_6747)">
<circle cx="273.809" cy="162.485" r="24.0164" fill="url(#paint5_linear_256_6747)"/>
</g>
<path d="M160 149L154.804 140L165.196 140L160 149Z" fill="#2EC8C8"/>
<path d="M101.992 45.0938C105.273 45.0938 107.828 47.25 107.852 50.3203C107.828 52.8984 106.035 54.832 103.516 55.3828V58.2891C105.203 58.2188 106.879 58.0781 108.461 57.8672L108.672 60.0703C104.219 60.9141 99.4141 60.9141 95.7812 60.8672L95.3828 58.4531C96.918 58.4414 98.6875 58.4414 100.539 58.4062V55.4062C97.9258 54.8789 96.1328 52.9336 96.1328 50.3203C96.1328 47.25 98.6172 45.0938 101.992 45.0938ZM101.992 47.625C100.305 47.625 99.0391 48.6094 99.0625 50.3203C99.0391 52.0078 100.305 53.0156 101.992 53.0156C103.633 53.0156 104.898 52.0078 104.898 50.3203C104.898 48.6094 103.633 47.625 101.992 47.625ZM112.586 43.8281V52.1953H115.492V54.7031H112.586V65.1562H109.586V43.8281H112.586ZM134.242 43.8281V65.2031H131.219V43.8281H134.242ZM122.664 45.3281C125.875 45.3281 128.266 48.2812 128.266 52.9219C128.266 57.6094 125.875 60.5391 122.664 60.5391C119.383 60.5391 116.992 57.6094 117.016 52.9219C116.992 48.2812 119.383 45.3281 122.664 45.3281ZM122.664 48.0234C121 48.0234 119.898 49.7578 119.898 52.9219C119.898 56.1094 121 57.8203 122.664 57.8203C124.281 57.8203 125.383 56.1094 125.383 52.9219C125.383 49.7578 124.281 48.0234 122.664 48.0234ZM155.008 43.8281V65.2031H152.031V43.8281H155.008ZM148.398 45.6094V53.8359H141.367V57.75C144.613 57.7383 147.379 57.5508 150.508 57.0469L150.766 59.4609C147.25 60.0703 144.086 60.2109 140.195 60.2109H138.273V51.4688H145.352V48.0234H138.25V45.6094H148.398ZM168.391 45C171.25 44.9766 173.312 47.0156 173.336 49.9453C173.312 52.8516 171.25 54.8906 168.391 54.8906C165.531 54.8906 163.492 52.8516 163.492 49.9453C163.492 47.0156 165.531 44.9766 168.391 45ZM168.391 47.4141C167.078 47.3906 166.164 48.3047 166.164 49.9453C166.164 51.5156 167.078 52.4297 168.391 52.4297C169.68 52.4297 170.594 51.5156 170.617 49.9453C170.594 48.3047 169.68 47.3906 168.391 47.4141ZM181.727 43.8516V55.4297H178.891V50.7188H177.109V55.2891H174.32V44.2266H177.109V48.2812H178.891V43.8516H181.727ZM170.102 56.2969V58.2422H178.773V56.2969H181.727V64.9219H167.148V56.2969H170.102ZM170.102 62.5312H178.773V60.6094H170.102V62.5312ZM202.633 43.8281V65.1562H199.773V43.8281H202.633ZM198.18 44.1328V64.1719H195.367V54.0938H193.656C193.375 58.2891 191.594 60.8203 188.969 60.8203C186.156 60.8203 184.328 57.8672 184.328 53.0625C184.328 48.2812 186.156 45.3516 188.969 45.3516C191.535 45.3516 193.293 47.7422 193.633 51.7266H195.367V44.1328H198.18ZM188.969 48.1641C187.773 48.1641 187.07 49.8047 187.094 53.0625C187.07 56.3438 187.773 57.9609 188.969 57.9375C190.188 57.9609 190.914 56.3438 190.914 53.0625C190.914 49.8047 190.188 48.1641 188.969 48.1641ZM212.945 48.6562C212.945 52.6641 214.562 56.5547 218.125 58.1016L216.297 60.4922C213.93 59.332 212.348 57.2109 211.469 54.5859C210.531 57.375 208.891 59.6602 206.453 60.8672L204.578 58.4297C208.234 56.7891 209.898 52.6641 209.922 48.6562V45.4688H212.945V48.6562ZM222.883 43.8281V65.2031H219.93V52.9453H215.734V50.5312H219.93V43.8281H222.883ZM90.4727 74.7031V77.1406H83.7695V86.6094C86.875 86.5742 89.1133 86.4336 91.6211 85.9766L91.9258 88.3906C88.9961 88.9531 86.418 89.0703 82.4805 89.0469H80.7461V74.7031H90.4727ZM97.7617 72.8281V94.2031H94.7852V82.6484H89.418V80.2109H94.7852V72.8281H97.7617ZM122.934 72.8281V77.3047H125.816V79.7656H122.934V83.4688H119.934V72.8281H122.934ZM116.887 74.1641V83.0469H106.645V74.1641H116.887ZM109.598 76.4844V80.7031H113.934V76.4844H109.598ZM110.84 85.25V91.1562C112.023 91.0859 113.137 90.9102 114.238 90.5469L114.66 92.8672C112.855 93.5234 111.145 93.5938 109.105 93.5938H107.934V85.25H110.84ZM124.668 85.4609V87.6172H113.934V85.4609H117.871V83.9141H120.777V85.4609H124.668ZM119.277 88.1562C121.715 88.1562 123.426 89.3047 123.426 91.1562C123.426 92.9844 121.715 94.1328 119.277 94.1328C116.816 94.1328 115.152 92.9844 115.176 91.1562C115.152 89.3047 116.816 88.1562 119.277 88.1562ZM119.277 90.1719C118.434 90.1719 117.801 90.5 117.824 91.1562C117.801 91.8125 118.434 92.1406 119.277 92.1406C120.121 92.1406 120.754 91.8125 120.754 91.1562C120.754 90.5 120.121 90.1719 119.277 90.1719ZM146.207 83.7266V86.1172H126.754V83.7266H146.207ZM144.004 91.3906V93.7812H129.098V87.5469H132.098V91.3906H144.004ZM136.48 73.4844C141.145 73.4609 144.215 75.125 144.238 77.8438C144.215 80.5625 141.145 82.25 136.48 82.25C131.77 82.25 128.699 80.5625 128.699 77.8438C128.699 75.125 131.77 73.4609 136.48 73.4844ZM136.48 75.8281C133.527 75.8516 131.793 76.5547 131.816 77.8438C131.793 79.1797 133.527 79.8359 136.48 79.8359C139.434 79.8359 141.145 79.1797 141.145 77.8438C141.145 76.5547 139.434 75.8516 136.48 75.8281ZM162.496 74.1641C162.496 79.6719 160.223 83.5391 154.34 85.9531L152.91 83.7969C155.371 82.8477 157.035 81.6641 158.09 80.2344L153.496 80.75L153.145 78.3828L159.191 78.0781C159.332 77.5977 159.438 77.1055 159.52 76.5781H154.035V74.1641H162.496ZM171.355 72.8516V85.3438H168.52V80.2344H166.598V85.1562H163.785V73.2266H166.598V77.7969H168.52V72.8516H171.355ZM171.355 86.1172V93.9219H156.801V86.1172H171.355ZM159.754 88.5078V91.5312H168.426V88.5078H159.754ZM192.426 72.8281V94.1562H189.543V72.8281H192.426ZM188.113 73.25V93.1484H185.277V83.2578H183.215V80.5859H185.277V73.25H188.113ZM183.707 75.2422V77.6562H182.348V86.5156C182.945 86.4688 183.52 86.4102 184.059 86.3281L184.27 88.4844C180.895 89.2109 176.535 89.2812 173.863 89.2812L173.535 86.8203H175.316V77.6562H173.934V75.2422H183.707ZM177.965 86.7734L179.629 86.7031V77.6562H177.965V86.7734ZM212.371 72.8516V88.1797H209.371V72.8516H212.371ZM212.934 91.3906V93.7812H198.074V86.6328H201.098V91.3906H212.934ZM200.676 74.2109C203.957 74.2109 206.512 76.4609 206.512 79.5781C206.512 82.7656 203.957 84.9922 200.676 84.9922C197.395 84.9922 194.84 82.7656 194.84 79.5781C194.84 76.4609 197.395 74.2109 200.676 74.2109ZM200.676 76.8125C199.012 76.7891 197.746 77.8438 197.77 79.5781C197.746 81.3594 199.012 82.3906 200.676 82.3906C202.293 82.3906 203.559 81.3594 203.559 79.5781C203.559 77.8438 202.293 76.7891 200.676 76.8125ZM224.98 73.1328C229.879 73.1328 232.715 74.4219 232.738 76.7656C232.715 79.1328 229.879 80.4219 224.98 80.4219C220.059 80.4219 217.199 79.1328 217.199 76.7656C217.199 74.4219 220.059 73.1328 224.98 73.1328ZM224.98 75.3125C221.84 75.3125 220.316 75.8281 220.34 76.7656C220.316 77.8203 221.84 78.2188 224.98 78.2188C228.145 78.2188 229.645 77.8203 229.645 76.7656C229.645 75.8281 228.145 75.3125 224.98 75.3125ZM234.707 81.4297V83.7969H215.254V81.4297H234.707ZM232.34 85.0391V90.4766H220.457V91.7656H232.902V94.0156H217.527V88.3906H229.387V87.2188H217.504V85.0391H232.34ZM95.8867 101.852V107.945H98.6055V110.406H95.8867V116.336H92.8867V101.852H95.8867ZM78.5898 113.594C80.1484 113.594 81.9297 113.594 83.7695 113.547V112.352C81.4492 112.023 79.9961 110.898 80.0195 109.258C79.9961 107.289 82.082 106.07 85.2461 106.07C88.3867 106.07 90.4492 107.289 90.4727 109.258C90.4492 110.898 89.0312 112.012 86.7461 112.328V113.43C88.5039 113.359 90.25 113.219 91.9023 113.008L92.1133 115.07C87.6133 115.867 82.668 115.914 78.8945 115.914L78.5898 113.594ZM95.8867 117.203V123.156H92.8867V119.5H81.3086V117.203H95.8867ZM91.3633 103.398V105.578H79.1523V103.398H83.7695V101.664H86.7461V103.398H91.3633ZM85.2461 108.062C83.7227 108.062 82.8555 108.438 82.8789 109.258C82.8555 110.031 83.7227 110.477 85.2461 110.477C86.7461 110.477 87.5898 110.031 87.6133 109.258C87.5898 108.438 86.7461 108.062 85.2461 108.062ZM117.426 101.852V117.18H114.426V101.852H117.426ZM117.988 120.391V122.781H103.129V115.633H106.152V120.391H117.988ZM105.73 103.211C109.012 103.211 111.566 105.461 111.566 108.578C111.566 111.766 109.012 113.992 105.73 113.992C102.449 113.992 99.8945 111.766 99.8945 108.578C99.8945 105.461 102.449 103.211 105.73 103.211ZM105.73 105.812C104.066 105.789 102.801 106.844 102.824 108.578C102.801 110.359 104.066 111.391 105.73 111.391C107.348 111.391 108.613 110.359 108.613 108.578C108.613 106.844 107.348 105.789 105.73 105.812ZM137.23 101.781V106.422H140.113V108.812H137.23V113.336H134.23V101.781H137.23ZM137.23 114.203V119.594H126.051V120.812H137.84V123.016H123.121V117.555H134.254V116.359H123.074V114.203H137.23ZM132.965 103.422V105.695H120.309V103.422H125.16V101.688H128.137V103.422H132.965ZM126.637 106.211C129.824 106.211 131.887 107.57 131.887 109.703C131.887 111.883 129.824 113.195 126.637 113.195C123.449 113.195 121.34 111.883 121.34 109.703C121.34 107.57 123.449 106.211 126.637 106.211ZM126.637 108.32C125.16 108.32 124.246 108.812 124.27 109.703C124.246 110.617 125.16 111.062 126.637 111.062C128.113 111.062 129.051 110.617 129.051 109.703C129.051 108.812 128.113 108.32 126.637 108.32ZM157.902 103.492C157.902 106 160.457 108.789 165.355 109.398L164.184 111.812C160.457 111.273 157.727 109.551 156.332 107.242C154.926 109.551 152.219 111.273 148.527 111.812L147.332 109.398C152.184 108.789 154.762 106 154.762 103.492V102.461H157.902V103.492ZM166.035 113.43V115.867H157.738V123.156H154.785V115.867H146.582V113.43H166.035ZM180.613 115.516C180.613 117.238 181.328 119.008 183.074 120.18C184.832 118.938 185.605 117.098 185.605 115.516V114.789H188.559V115.516C188.535 117.742 189.73 119.805 192.566 120.672L191.113 122.852C189.074 122.16 187.738 120.859 187.012 119.219C186.297 120.859 185.055 122.289 183.145 123.039C181.129 122.312 179.875 120.93 179.184 119.289C178.434 120.883 177.121 122.172 175.176 122.852L173.699 120.672C176.512 119.711 177.684 117.602 177.707 115.516V114.789H180.613V115.516ZM190.715 101.852V113.898H187.715V101.852H190.715ZM179.02 102.93C182.348 102.93 184.855 105.039 184.855 108.062C184.855 111.039 182.348 113.148 179.02 113.148C175.691 113.148 173.184 111.039 173.184 108.062C173.184 105.039 175.691 102.93 179.02 102.93ZM179.02 105.438C177.309 105.438 176.09 106.422 176.113 108.062C176.09 109.68 177.309 110.664 179.02 110.664C180.684 110.664 181.902 109.68 181.902 108.062C181.902 106.422 180.684 105.438 179.02 105.438ZM199.48 103.328C202.363 103.328 204.508 105.707 204.941 109.539H208.645V101.828H211.598V123.203H208.645V111.93H204.965C204.648 116.031 202.457 118.539 199.48 118.539C196.246 118.539 193.926 115.609 193.949 110.922C193.926 106.281 196.246 103.328 199.48 103.328ZM199.48 106.023C197.887 106.023 196.785 107.758 196.809 110.922C196.785 114.109 197.887 115.82 199.48 115.82C201.098 115.82 202.152 114.109 202.152 110.922C202.152 107.758 201.098 106.023 199.48 106.023ZM233.863 118.211V120.672H214.34V118.211H218.699V112.984C217.047 112 216.051 110.488 216.051 108.602C216.051 105.156 219.426 102.859 224.066 102.859C228.684 102.859 232.082 105.156 232.105 108.602C232.094 110.441 231.121 111.941 229.527 112.938V118.211H233.863ZM224.066 105.227C221.02 105.227 219.004 106.445 219.004 108.602C219.004 110.688 221.02 111.977 224.066 111.977C227.09 111.977 229.129 110.688 229.152 108.602C229.129 106.445 227.09 105.227 224.066 105.227ZM221.652 118.211H226.504V114.062C225.742 114.215 224.922 114.297 224.066 114.297C223.211 114.297 222.402 114.227 221.652 114.062V118.211ZM239.934 104.031L239.629 115.914H236.629L236.324 104.031H239.934ZM238.152 121.211C237.051 121.211 236.16 120.32 236.184 119.242C236.16 118.164 237.051 117.297 238.152 117.297C239.184 117.297 240.098 118.164 240.098 119.242C240.098 120.32 239.184 121.211 238.152 121.211Z" fill="#424242"/>
<path d="M88.1423 304.939H89.0133V306.85C89.0133 309.333 87.5183 311.829 85.6463 312.752L85.0223 311.894C86.7253 311.088 88.1423 308.878 88.1423 306.85V304.939ZM88.3503 304.939H89.2213V306.85C89.2213 308.839 90.6383 310.867 92.3673 311.608L91.7563 312.466C89.8583 311.582 88.3503 309.294 88.3503 306.85V304.939ZM85.4123 304.458H91.9773V305.368H85.4123V304.458ZM93.5633 303.262H94.6423V315.014H93.5633V303.262ZM98.3462 303.873H105.912V304.757H98.3462V303.873ZM96.9942 308.202H107.641V309.086H96.9942V308.202ZM105.21 303.873H106.263V304.744C106.263 305.745 106.263 306.889 105.873 308.514L104.82 308.462C105.21 306.85 105.21 305.719 105.21 304.744V303.873ZM98.2942 310.685H106.302V314.858H98.2942V310.685ZM105.249 311.543H99.3472V313.987H105.249V311.543ZM119.803 303.262H120.895V315.014H119.803V303.262ZM120.635 307.877H122.819V308.8H120.635V307.877ZM112.315 304.25H113.381V307.357H116.735V304.25H117.801V312.193H112.315V304.25ZM113.381 308.215V311.309H116.735V308.215H113.381ZM123.819 312.674H134.466V313.571H123.819V312.674ZM128.577 310.152H129.656V313.051H128.577V310.152ZM125.106 304.133H133.153V307.695H126.211V310.048H125.145V306.824H132.087V305.004H125.106V304.133ZM125.145 309.593H133.426V310.477H125.145V309.593ZM146.629 303.249H147.721V315.027H146.629V303.249ZM147.461 307.89H149.645V308.8H147.461V307.89ZM139.18 311.192H140.103C142.274 311.192 143.795 311.114 145.55 310.789L145.667 311.699C143.86 312.037 142.313 312.102 140.103 312.102H139.18V311.192ZM139.18 304.393H144.64V305.277H140.246V311.595H139.18V304.393ZM150.632 309.216H161.292V310.1H150.632V309.216ZM155.494 309.775H156.586V312.479H155.494V309.775ZM151.984 313.857H160.109V314.754H151.984V313.857ZM151.984 311.322H153.063V314.104H151.984V311.322ZM155.949 303.548C158.432 303.548 160.07 304.458 160.07 305.914C160.07 307.37 158.432 308.28 155.949 308.28C153.453 308.28 151.828 307.37 151.828 305.914C151.828 304.458 153.453 303.548 155.949 303.548ZM155.949 304.432C154.155 304.432 152.972 305.004 152.972 305.914C152.972 306.837 154.155 307.396 155.949 307.396C157.743 307.396 158.926 306.837 158.926 305.914C158.926 305.004 157.743 304.432 155.949 304.432ZM162.604 312.674H173.251V313.571H162.604V312.674ZM167.362 310.152H168.441V313.051H167.362V310.152ZM163.891 304.133H171.938V307.695H164.996V310.048H163.93V306.824H170.872V305.004H163.891V304.133ZM163.93 309.593H172.211V310.477H163.93V309.593ZM175.902 308.891H183.975V309.775H175.902V308.891ZM174.563 312.531H185.21V313.428H174.563V312.531ZM175.902 304.341H183.858V305.238H176.981V309.281H175.902V304.341ZM189.403 305.264H195.227V306.148H189.403V305.264ZM192.315 306.928C193.784 306.928 194.85 308.033 194.85 309.619C194.85 311.192 193.784 312.297 192.315 312.297C190.859 312.297 189.793 311.192 189.793 309.619C189.793 308.033 190.859 306.928 192.315 306.928ZM192.315 307.851C191.418 307.851 190.768 308.579 190.768 309.619C190.768 310.659 191.418 311.387 192.315 311.387C193.225 311.387 193.888 310.659 193.888 309.619C193.888 308.579 193.225 307.851 192.315 307.851ZM198.334 303.262H199.374V315.014H198.334V303.262ZM196.462 308.202H198.685V309.099H196.462V308.202ZM195.825 303.522H196.839V314.442H195.825V303.522ZM191.795 303.6H192.861V305.81H191.795V303.6ZM201.388 312.622H212.035V313.519H201.388V312.622ZM206.146 309.814H207.225V312.882H206.146V309.814ZM202.636 304.094H203.702V306.187H209.695V304.094H210.761V310.1H202.636V304.094ZM203.702 307.058V309.216H209.695V307.058H203.702ZM217.975 307.461H220.224V308.358H217.975V307.461ZM215.778 304.367H216.623V306.603C216.623 309.06 215.596 311.439 213.88 312.492L213.204 311.673C214.816 310.724 215.778 308.618 215.778 306.603V304.367ZM215.986 304.367H216.818V306.564C216.818 308.449 217.702 310.451 219.249 311.387L218.625 312.232C216.935 311.192 215.986 308.852 215.986 306.564V304.367ZM222.291 303.262H223.331V315.014H222.291V303.262ZM219.912 303.509H220.926V314.429H219.912V303.509ZM227.906 309.307H228.972V312.83H227.906V309.307ZM232.248 309.307H233.327V312.83H232.248V309.307ZM225.306 312.622H235.953V313.519H225.306V312.622ZM230.61 304.003C233.093 304.003 234.874 305.186 234.874 307.032C234.874 308.865 233.093 310.048 230.61 310.048C228.114 310.048 226.333 308.865 226.333 307.032C226.333 305.186 228.114 304.003 230.61 304.003ZM230.61 304.861C228.725 304.861 227.373 305.719 227.373 307.032C227.373 308.332 228.725 309.19 230.61 309.19C232.495 309.19 233.834 308.332 233.834 307.032C233.834 305.719 232.495 304.861 230.61 304.861Z" fill="#757575"/>
</g>
<defs>
<filter id="filter0_f_256_6747" x="-26.1994" y="5.11648" width="102.109" height="102.109" filterUnits="userSpaceOnUse" color-interpolation-filters="sRGB">
<feFlood flood-opacity="0" result="BackgroundImageFix"/>
<feBlend mode="normal" in="SourceGraphic" in2="BackgroundImageFix" result="shape"/>
<feGaussianBlur stdDeviation="5.12731" result="effect1_foregroundBlur_256_6747"/>
</filter>
<filter id="filter1_f_256_6747" x="263.264" y="255.259" width="70.616" height="70.6158" filterUnits="userSpaceOnUse" color-interpolation-filters="sRGB">
<feFlood flood-opacity="0" result="BackgroundImageFix"/>
<feBlend mode="normal" in="SourceGraphic" in2="BackgroundImageFix" result="shape"/>
<feGaussianBlur stdDeviation="0.876788" result="effect1_foregroundBlur_256_6747"/>
</filter>
<filter id="filter2_f_256_6747" x="-90.1935" y="203.72" width="166.285" height="165.141" filterUnits="userSpaceOnUse" color-interpolation-filters="sRGB">
<feFlood flood-opacity="0" result="BackgroundImageFix"/>
<feBlend mode="normal" in="SourceGraphic" in2="BackgroundImageFix" result="shape"/>
<feGaussianBlur stdDeviation="0.876788" result="effect1_foregroundBlur_256_6747"/>
</filter>
<filter id="filter3_f_256_6747" x="47.0081" y="207.117" width="89.0073" height="89.007" filterUnits="userSpaceOnUse" color-interpolation-filters="sRGB">
<feFlood flood-opacity="0" result="BackgroundImageFix"/>
<feBlend mode="normal" in="SourceGraphic" in2="BackgroundImageFix" result="shape"/>
<feGaussianBlur stdDeviation="5.12731" result="effect1_foregroundBlur_256_6747"/>
</filter>
<filter id="filter4_f_256_6747" x="268.245" y="30.3568" width="157.517" height="157.898" filterUnits="userSpaceOnUse" color-interpolation-filters="sRGB">
<feFlood flood-opacity="0" result="BackgroundImageFix"/>
<feBlend mode="normal" in="SourceGraphic" in2="BackgroundImageFix" result="shape"/>
<feGaussianBlur stdDeviation="0.876788" result="effect1_foregroundBlur_256_6747"/>
</filter>
<filter id="filter5_f_256_6747" x="239.538" y="128.214" width="68.5419" height="68.5419" filterUnits="userSpaceOnUse" color-interpolation-filters="sRGB">
<feFlood flood-opacity="0" result="BackgroundImageFix"/>
<feBlend mode="normal" in="SourceGraphic" in2="BackgroundImageFix" result="shape"/>
<feGaussianBlur stdDeviation="5.12731" result="effect1_foregroundBlur_256_6747"/>
</filter>
<linearGradient id="paint0_linear_256_6747" x1="78.8547" y1="81.5882" x2="2.73354" y2="-2.28529e-06" gradientUnits="userSpaceOnUse">
<stop stop-color="white"/>
<stop offset="1" stop-color="#2EC8C8"/>
</linearGradient>
<linearGradient id="paint1_linear_256_6747" x1="298.571" y1="257.018" x2="298.571" y2="323.73" gradientUnits="userSpaceOnUse">
<stop stop-color="white"/>
<stop offset="1" stop-color="#C3F6F7" stop-opacity="0.51"/>
</linearGradient>
<linearGradient id="paint2_linear_256_6747" x1="68.884" y1="367.107" x2="-10.495" y2="230.506" gradientUnits="userSpaceOnUse">
<stop stop-color="#C3F6F7" stop-opacity="0.49"/>
<stop offset="0.44" stop-color="#E1FAFB" stop-opacity="0.745"/>
<stop offset="0.9" stop-color="white"/>
</linearGradient>
<linearGradient id="paint3_linear_256_6747" x1="123.466" y1="285.87" x2="59.5579" y2="217.372" gradientUnits="userSpaceOnUse">
<stop stop-color="white" stop-opacity="0.68"/>
<stop offset="1" stop-color="#2EC8C8" stop-opacity="0.52"/>
</linearGradient>
<linearGradient id="paint4_linear_256_6747" x1="418.849" y1="186.501" x2="342.671" y2="56.6521" gradientUnits="userSpaceOnUse">
<stop stop-color="#C3F6F7" stop-opacity="0.49"/>
<stop offset="0.44" stop-color="#E1FAFB" stop-opacity="0.745"/>
<stop offset="0.9" stop-color="white"/>
</linearGradient>
<linearGradient id="paint5_linear_256_6747" x1="296.216" y1="186.501" x2="251.402" y2="138.468" gradientUnits="userSpaceOnUse">
<stop stop-color="#2EC8C8" stop-opacity="0.52"/>
<stop offset="1" stop-color="white"/>
</linearGradient>
<clipPath id="clip0_256_6747">
<rect width="320" height="346" rx="32" fill="white"/>
</clipPath>
<clipPath id="clip1_256_6747">
<rect width="20" height="20" fill="white" transform="translate(113 187)"/>
</clipPath>
</defs>
</svg>
