<svg width="240" height="52" viewBox="0 0 240 52" fill="none" xmlns="http://www.w3.org/2000/svg">
<rect width="240" height="52" rx="26" fill="#2EC8C8"/>
<g clip-path="url(#clip0_256_6768)">
<path d="M89.8291 22.286C89.7471 22.3373 87.7951 23.4207 87.7951 25.8227C87.8871 28.562 90.2584 29.5227 90.2991 29.5227C90.2584 29.574 89.9411 30.8313 89.0011 32.1493C88.2551 33.2847 87.4271 34.4293 86.1698 34.4293C84.9738 34.4293 84.5444 33.6727 83.1644 33.6727C81.6824 33.6727 81.2631 34.4293 80.1284 34.4293C78.8711 34.4293 77.9818 33.2233 77.1951 32.0987C76.1731 30.6267 75.3044 28.3167 75.2738 26.0987C75.2531 24.9233 75.4784 23.768 76.0504 22.7867C76.8578 21.4167 78.2991 20.4867 79.8731 20.456C81.0791 20.4153 82.1524 21.284 82.8884 21.284C83.5938 21.284 84.9124 20.456 86.4044 20.456C87.0484 20.4567 88.7658 20.6507 89.8291 22.286ZM82.7864 20.2213C82.5718 19.148 83.1644 18.0747 83.7164 17.39C84.4218 16.562 85.5358 16 86.4964 16C86.5578 17.0733 86.1691 18.126 85.4744 18.8927C84.8511 19.7207 83.7778 20.344 82.7864 20.2213Z" fill="white"/>
</g>
<path d="M100.484 32H98.3125L102.297 20.6875H104.797L108.797 32H106.625L105.688 29.2031H101.422L100.484 32ZM101.969 27.5625H105.141L103.594 23H103.5L101.969 27.5625ZM109.341 32V20.6875H113.591C116.184 20.6875 117.575 22.2656 117.575 24.4375C117.575 26.6094 116.169 28.1719 113.559 28.1719H111.372V32H109.341ZM111.372 26.5H113.278C114.809 26.5 115.497 25.6406 115.497 24.4375C115.497 23.2188 114.809 22.3906 113.278 22.3906H111.372V26.5ZM118.416 32V20.6875H122.666C125.259 20.6875 126.65 22.2656 126.65 24.4375C126.65 26.6094 125.244 28.1719 122.634 28.1719H120.447V32H118.416ZM120.447 26.5H122.353C123.884 26.5 124.572 25.6406 124.572 24.4375C124.572 23.2188 123.884 22.3906 122.353 22.3906H120.447V26.5ZM136.644 23.7969C136.55 22.8281 135.722 22.2656 134.503 22.2656C133.222 22.2656 132.441 22.8906 132.441 23.7344C132.441 24.6875 133.441 25.0781 134.378 25.2969L135.441 25.5781C137.128 25.9688 138.753 26.8594 138.753 28.8281C138.753 30.8125 137.191 32.1719 134.472 32.1719C131.831 32.1719 130.175 30.9062 130.081 28.6719H132.081C132.175 29.8594 133.175 30.4375 134.456 30.4375C135.8 30.4375 136.722 29.7812 136.722 28.8125C136.722 27.9219 135.894 27.5469 134.675 27.2344L133.394 26.9062C131.534 26.4219 130.378 25.4844 130.378 23.8594C130.378 21.8594 132.159 20.5312 134.534 20.5312C136.941 20.5312 138.566 21.8906 138.597 23.7969H136.644ZM143.781 23.5156V25.0469H142.109V29.4531C142.109 30.2656 142.516 30.4375 143.016 30.4375C143.25 30.4375 143.641 30.4219 143.891 30.4062V32.0312C143.656 32.0781 143.266 32.1094 142.766 32.1094C141.266 32.1094 140.109 31.375 140.125 29.7812V25.0469H138.906V23.5156H140.125V21.4844H142.109V23.5156H143.781ZM148.122 32.1719C145.653 32.1719 144.059 30.4219 144.059 27.7969C144.059 25.1562 145.653 23.4062 148.122 23.4062C150.606 23.4062 152.184 25.1562 152.184 27.7969C152.184 30.4219 150.606 32.1719 148.122 32.1719ZM148.138 30.5781C149.497 30.5781 150.169 29.3438 150.169 27.7812C150.169 26.2344 149.497 24.9844 148.138 24.9844C146.747 24.9844 146.075 26.2344 146.075 27.7812C146.075 29.3438 146.747 30.5781 148.138 30.5781ZM152.931 32V23.5156H154.869V24.9219H154.963C155.259 23.9531 156.088 23.3906 157.056 23.3906C157.275 23.3906 157.588 23.4062 157.775 23.4375V25.2812C157.603 25.2188 157.181 25.1562 156.853 25.1562C155.744 25.1562 154.931 25.9219 154.931 27V32H152.931ZM161.647 32.1719C159.084 32.1719 157.522 30.4688 157.522 27.8125C157.522 25.1875 159.116 23.4062 161.537 23.4062C163.616 23.4062 165.412 24.7031 165.412 27.6875V28.3125H159.491C159.514 29.7578 160.366 30.6094 161.662 30.6094C162.537 30.6094 163.131 30.2344 163.381 29.7344H165.334C164.975 31.2031 163.616 32.1719 161.647 32.1719ZM159.506 26.9531H163.506C163.491 25.7969 162.725 24.9531 161.569 24.9531C160.366 24.9531 159.569 25.8672 159.506 26.9531Z" fill="white"/>
<defs>
<clipPath id="clip0_256_6768">
<rect width="20" height="20" fill="white" transform="translate(73 16)"/>
</clipPath>
</defs>
</svg>
