<svg width="240" height="52" viewBox="0 0 240 52" fill="none" xmlns="http://www.w3.org/2000/svg">
<rect width="240" height="52" rx="26" fill="#2EC8C8"/>
<path d="M78.2832 26.0002L70.5457 33.7377C70.4582 33.5544 70.4165 33.3544 70.4165 33.146V18.8544C70.4165 18.646 70.4582 18.446 70.5457 18.2627L78.2832 26.0002Z" fill="white"/>
<path d="M79.1664 26.8835L81.7539 29.471L72.5664 34.4294C72.3498 34.546 72.1123 34.6044 71.8748 34.6044C71.7456 34.6044 71.6206 34.5877 71.4956 34.5544L79.1664 26.8835Z" fill="white"/>
<path d="M79.1667 25.1168L71.5 17.4501C71.8542 17.3501 72.2333 17.3918 72.5667 17.5709L81.7542 22.5293L79.1667 25.1168Z" fill="white"/>
<path d="M86.579 26.0002C86.579 26.5377 86.2831 27.0293 85.8123 27.2835L82.904 28.8543L80.0498 26.0002L82.904 23.146L85.8123 24.7168C86.2831 24.971 86.579 25.4627 86.579 26.0002Z" fill="white"/>
<path d="M101.125 24.2969C100.766 23.0938 99.8281 22.3594 98.4531 22.3594C96.625 22.3594 95.3125 23.7812 95.3125 26.3281C95.3125 28.9062 96.6094 30.3281 98.5 30.3281C100.203 30.3281 101.297 29.2969 101.328 27.6875H98.7031V26.0781H103.297V27.4375C103.297 30.3438 101.297 32.1562 98.5 32.1562C95.375 32.1562 93.2656 29.9375 93.2656 26.3438C93.2656 22.7188 95.4688 20.5312 98.4375 20.5312C100.938 20.5312 102.859 22.0781 103.203 24.2969H101.125ZM107.95 32.1719C105.481 32.1719 103.887 30.4219 103.887 27.7969C103.887 25.1562 105.481 23.4062 107.95 23.4062C110.434 23.4062 112.012 25.1562 112.012 27.7969C112.012 30.4219 110.434 32.1719 107.95 32.1719ZM107.966 30.5781C109.325 30.5781 109.997 29.3438 109.997 27.7812C109.997 26.2344 109.325 24.9844 107.966 24.9844C106.575 24.9844 105.903 26.2344 105.903 27.7812C105.903 29.3438 106.575 30.5781 107.966 30.5781ZM116.462 32.1719C113.994 32.1719 112.4 30.4219 112.4 27.7969C112.4 25.1562 113.994 23.4062 116.462 23.4062C118.947 23.4062 120.525 25.1562 120.525 27.7969C120.525 30.4219 118.947 32.1719 116.462 32.1719ZM116.478 30.5781C117.837 30.5781 118.509 29.3438 118.509 27.7812C118.509 26.2344 117.837 24.9844 116.478 24.9844C115.087 24.9844 114.416 26.2344 114.416 27.7812C114.416 29.3438 115.087 30.5781 116.478 30.5781ZM124.975 35.3594C122.725 35.3594 121.303 34.3594 121.163 32.7656H123.147C123.288 33.5 123.991 33.8594 125.006 33.8594C126.194 33.8594 126.975 33.3438 126.975 32.0938V30.4688H126.881C126.569 31.0938 125.897 31.875 124.428 31.875C122.475 31.875 120.928 30.4531 120.928 27.6875C120.928 24.8906 122.475 23.4062 124.444 23.4062C125.944 23.4062 126.569 24.2969 126.881 24.9062H126.975V23.5156H128.944V32.1406C128.944 34.3125 127.272 35.3594 124.975 35.3594ZM124.975 30.3125C126.256 30.3125 126.991 29.3438 126.991 27.7188C126.991 26.1094 126.272 25.0312 124.975 25.0312C123.647 25.0312 122.959 26.1719 122.959 27.7188C122.959 29.2812 123.663 30.3125 124.975 30.3125ZM132.05 20.6875V32H130.05V20.6875H132.05ZM136.922 32.1719C134.359 32.1719 132.797 30.4688 132.797 27.8125C132.797 25.1875 134.391 23.4062 136.812 23.4062C138.891 23.4062 140.688 24.7031 140.688 27.6875V28.3125H134.766C134.789 29.7578 135.641 30.6094 136.938 30.6094C137.812 30.6094 138.406 30.2344 138.656 29.7344H140.609C140.25 31.2031 138.891 32.1719 136.922 32.1719ZM134.781 26.9531H138.781C138.766 25.7969 138 24.9531 136.844 24.9531C135.641 24.9531 134.844 25.8672 134.781 26.9531ZM144.525 32V20.6875H148.775C151.369 20.6875 152.759 22.2656 152.759 24.4375C152.759 26.6094 151.353 28.1719 148.744 28.1719H146.556V32H144.525ZM146.556 26.5H148.463C149.994 26.5 150.681 25.6406 150.681 24.4375C150.681 23.2188 149.994 22.3906 148.463 22.3906H146.556V26.5ZM155.506 20.6875V32H153.506V20.6875H155.506ZM156.222 29.6094C156.222 27.7031 157.8 27.1406 159.378 27.0469C159.964 27.0078 161.183 26.9375 161.55 26.9219V26.25C161.55 25.4062 161.003 24.9219 160.019 24.9219C159.128 24.9219 158.581 25.3281 158.425 25.9375H156.503C156.644 24.5 157.941 23.4062 160.066 23.4062C161.675 23.4062 163.534 24.0625 163.534 26.3281V32H161.628V30.8281H161.566C161.191 31.5469 160.394 32.1719 159.066 32.1719C157.441 32.1719 156.222 31.2812 156.222 29.6094ZM158.144 29.5938C158.144 30.3281 158.737 30.7031 159.581 30.7031C160.784 30.7031 161.566 29.9062 161.566 28.9531V28.25L159.691 28.375C158.737 28.4531 158.144 28.8438 158.144 29.5938ZM165.5 35.1875C165.109 35.1875 164.719 35.1719 164.469 35.1406V33.5469C164.719 33.5625 165.047 33.5781 165.312 33.5781C165.797 33.5781 166.203 33.5312 166.547 32.625L166.719 32.1719L163.625 23.5156H165.734L167.703 29.9219H167.797L169.766 23.5156H171.875L168.469 33.0312C167.984 34.3906 167.094 35.1875 165.5 35.1875Z" fill="white"/>
</svg>
