<svg width="82" height="22" viewBox="0 0 82 22" fill="none" xmlns="http://www.w3.org/2000/svg">
<path d="M23.0441 3.23931V11.5532L17.6755 3.23931H12.173V11.5532L6.79078 3.2146H0.247944L11.1217 20.0594C11.7771 21.0753 12.9049 21.6875 14.1146 21.6875C16.0807 21.6875 17.6755 20.0978 17.6755 18.1374V13.3736L21.99 20.0566C22.6454 21.0725 23.7732 21.6848 24.9829 21.6848C26.949 21.6848 28.5438 20.095 28.5438 18.1346V3.23931C28.5438 3.23931 26.7797 3.23931 25.7803 3.23931C24.7808 3.23931 23.0441 3.23931 23.0441 3.23931Z" fill="#2EC8C8"/>
<path d="M44.2837 3.75829V5.25743C43.2187 4.03286 41.6212 3.34644 39.5131 3.34644C34.5077 3.34644 31.0315 7.21785 31.0315 12.5225C31.0315 17.8272 34.5077 21.6986 39.5131 21.6986C41.624 21.6986 43.2187 21.0121 44.2837 19.7876V21.424H49.7779V3.75829H44.2837ZM40.3323 16.9376C39.1281 16.9376 38.1505 16.4763 37.4733 15.6993C36.796 14.9222 36.4083 13.8185 36.4083 12.5225C36.4083 11.2265 36.796 10.1228 37.4733 9.34575C38.1505 8.56872 39.1281 8.10745 40.3323 8.10745C41.5666 8.10745 42.5743 8.57147 43.2733 9.34575C43.9724 10.1228 44.3738 11.2265 44.3738 12.5225C44.3738 13.8157 43.9724 14.9195 43.2733 15.6993C42.5715 16.4763 41.5666 16.9376 40.3323 16.9376Z" fill="#2EC8C8"/>
<path d="M73.6745 3.58802L73.579 3.55508C72.8826 3.31071 72.2518 3.25305 71.2797 3.25305C69.2235 3.25305 67.6806 3.94222 66.6265 5.16405V3.6649H61.1296V21.4267H66.6265V12.2204C66.6265 10.9437 67.0334 9.93329 67.7625 9.24138C68.4944 8.54947 69.5675 8.15958 70.9302 8.15958C71.9351 8.15958 72.8198 8.36276 73.5271 8.73069L73.7401 8.84326L73.6745 3.58802Z" fill="#2EC8C8"/>
<path d="M78.7128 6.26783C80.302 6.26783 81.5909 5.02679 81.5909 3.4947C81.5909 1.96261 80.302 0.721558 78.7128 0.721558C77.1235 0.721558 75.8346 1.96261 75.8346 3.4947C75.8346 3.61551 75.8455 3.73357 75.8619 3.85163C76.0421 5.21075 77.2491 6.26783 78.7128 6.26783Z" fill="#2EC8C8"/>
<path fill-rule="evenodd" clip-rule="evenodd" d="M78.7128 9.4006C79.775 9.4006 80.7635 9.08484 81.5909 8.54395V18.8046C81.5909 20.4025 80.302 21.6985 78.7128 21.6985C77.1235 21.6985 75.8346 20.4025 75.8346 18.8046C75.8346 18.8018 75.8346 18.7963 75.8346 18.7936V8.54395C76.662 9.08759 77.6505 9.4006 78.7128 9.4006Z" fill="#2EC8C8"/>
<path d="M55.4551 6.26783C57.0444 6.26783 58.3333 5.02679 58.3333 3.4947C58.3333 1.96261 57.0444 0.721558 55.4551 0.721558C53.8658 0.721558 52.5769 1.96261 52.5769 3.4947C52.5769 3.61551 52.5879 3.73357 52.6042 3.85163C52.7845 5.21075 53.9915 6.26783 55.4551 6.26783Z" fill="#2EC8C8"/>
<path fill-rule="evenodd" clip-rule="evenodd" d="M55.4551 9.4006C56.5174 9.4006 57.5059 9.08484 58.3333 8.54395V18.8046C58.3333 20.4025 57.0444 21.6985 55.4551 21.6985C53.8658 21.6985 52.5769 20.4025 52.5769 18.8046V8.54395C53.4043 9.08759 54.3929 9.4006 55.4551 9.4006Z" fill="#2EC8C8"/>
</svg>
