<svg width="24" height="24" viewBox="0 0 24 24" fill="none" xmlns="http://www.w3.org/2000/svg">
<path d="M18.2944 9.99528V12.3517L14.2227 6.07948H10.0483V12.3517L5.96527 6.0625H1L9.2505 18.7711C9.74773 19.5372 10.6033 19.9996 11.5216 19.9996C13.0133 19.9996 14.2227 18.8 14.2227 17.3205V13.728L17.4966 18.7711C17.9938 19.5372 18.8493 19.9996 19.7677 19.9996C21.2594 19.9996 22.4688 18.8 22.4688 17.3205V9.98521C21.8435 10.3161 21.13 10.5042 20.3721 10.5042C19.6142 10.5042 18.9153 10.3199 18.2944 9.99465V9.99528Z" fill="#2EC8C8"/>
<path d="M20.3702 8.15986C21.5282 8.15986 22.4669 7.22888 22.4669 6.08025C22.4669 4.93161 21.5282 4 20.3702 4C19.2121 4 18.2734 4.93098 18.2734 6.07962C18.2734 6.1702 18.281 6.25889 18.2925 6.34633C18.4244 7.36853 19.3034 8.15986 20.3702 8.15986Z" fill="#2EC8C8"/>
</svg>
